<?xml version="1.0" standalone="no"?>
<!DOCTYPE svg PUBLIC "-//W3C//DTD SVG 20010904//EN"
 "http://www.w3.org/TR/2001/REC-SVG-20010904/DTD/svg10.dtd">
<svg version="1.0" xmlns="http://www.w3.org/2000/svg"
 width="200.000000pt" height="200.000000pt" viewBox="0 0 200.000000 200.000000"
 preserveAspectRatio="xMidYMid meet">

<g transform="translate(0.000000,200.000000) scale(0.100000,-0.100000)"
fill="#000000" stroke="none">
<path d="M0 1000 l0 -1000 1000 0 1000 0 0 1000 0 1000 -1000 0 -1000 0 0
-1000z m1370 594 c0 -4 -34 -49 -76 -100 l-76 -94 -189 0 c-201 0 -206 -1
-173 -48 30 -43 49 -47 288 -52 l228 -5 -47 -57 c-26 -32 -52 -55 -58 -51 -6
3 -7 1 -3 -5 4 -6 -7 -26 -23 -44 l-29 -33 -172 -3 c-132 -3 -171 -1 -165 8 6
9 3 9 -12 1 -11 -6 -24 -7 -28 -3 -4 4 -4 -4 -1 -18 6 -19 5 -21 -3 -10 -6 8
-11 11 -11 7 0 -4 -9 -3 -20 3 -12 6 -18 16 -14 23 4 7 -1 5 -12 -3 -10 -8
-36 -24 -56 -34 -21 -10 -35 -23 -32 -27 3 -5 -2 -6 -10 -3 -10 4 -16 1 -16
-7 0 -11 -2 -11 -9 1 -13 19 -4 31 17 23 15 -6 15 -5 3 10 -16 20 -2 23 19 5
12 -11 12 -10 1 5 -10 13 -11 20 -2 31 9 11 7 20 -14 40 -55 55 -67 123 -36
192 22 48 60 80 111 94 29 8 39 16 43 38 9 40 57 91 102 107 30 10 97 14 258
15 119 0 217 -3 217 -6z m-530 -547 c11 -5 9 -6 -4 -4 -11 1 -21 9 -23 17 -3
10 -2 11 4 4 4 -6 15 -14 23 -17z m-80 -362 c0 -12 -14 -15 -65 -15 -51 0 -65
-3 -65 -15 0 -12 14 -15 65 -15 58 0 65 -2 65 -20 0 -18 -7 -20 -65 -20 -51 0
-65 -3 -65 -15 0 -12 14 -15 65 -15 51 0 65 -3 65 -15 0 -12 -15 -15 -79 -15
-89 0 -91 1 -91 80 0 79 2 80 91 80 64 0 79 -3 79 -15z m220 0 c0 -12 -14 -15
-70 -15 -55 0 -70 -3 -70 -15 0 -11 16 -15 67 -17 55 -2 68 -6 71 -20 3 -16
-5 -18 -67 -18 -56 0 -71 -3 -71 -15 0 -12 14 -15 70 -15 56 0 70 -3 70 -15 0
-13 -14 -15 -82 -13 l-83 3 -3 64 c-2 35 -1 70 2 77 8 21 166 20 166 -1z m210
0 c0 -12 -14 -15 -65 -15 -51 0 -65 -3 -65 -15 0 -11 13 -15 54 -15 62 0 79
-14 74 -62 l-3 -33 -82 -3 c-69 -2 -83 0 -83 13 0 12 14 15 70 15 56 0 70 3
70 15 0 12 -13 15 -60 15 -54 0 -62 2 -71 24 -7 14 -9 36 -5 50 6 25 9 26 86
26 64 0 80 -3 80 -15z m214 -1 c3 -9 6 -45 6 -80 0 -57 -2 -64 -20 -64 -16 0
-20 7 -20 30 0 29 -1 30 -50 30 -49 0 -50 -1 -50 -30 0 -20 -5 -30 -15 -30
-12 0 -15 15 -15 73 0 41 3 77 7 80 3 4 39 7 79 7 56 0 73 -3 78 -16z"/>
<path d="M904 1530 c-34 -17 -64 -53 -64 -75 0 -3 80 -5 178 -5 l177 1 33 44
c17 24 32 47 32 50 0 3 -71 5 -157 5 -139 0 -163 -3 -199 -20z"/>
<path d="M743 1385 c-89 -38 -94 -179 -8 -219 46 -22 52 -20 60 14 4 16 20 44
36 61 l30 32 -25 26 c-14 14 -32 43 -41 64 -8 20 -16 37 -18 37 -1 -1 -16 -7
-34 -15z"/>
<path d="M893 1230 c-18 -10 -39 -33 -48 -50 -8 -16 -14 -30 -13 -30 2 0 84
-1 182 -2 l179 -1 33 44 c19 24 34 47 34 52 0 4 -75 7 -167 7 -149 0 -172 -2
-200 -20z"/>
<path d="M1277 663 c-17 -16 -3 -23 43 -23 38 0 50 4 50 15 0 11 -11 15 -43
15 -24 0 -47 -3 -50 -7z"/>
</g>
</svg>
