<?xml version="1.0" standalone="no"?>
<!DOCTYPE svg PUBLIC "-//W3C//DTD SVG 20010904//EN"
 "http://www.w3.org/TR/2001/REC-SVG-20010904/DTD/svg10.dtd">
<svg version="1.0" xmlns="http://www.w3.org/2000/svg"
 width="349.000000pt" height="144.000000pt" viewBox="0 0 349.000000 144.000000"
 preserveAspectRatio="xMidYMid meet">

<g transform="translate(0.000000,144.000000) scale(0.100000,-0.100000)"
fill="#000000" stroke="none">
<path d="M1180 1420 c-77 -19 -170 -55 -250 -95 -25 -12 -74 -26 -109 -30 -85
-10 -179 -37 -240 -70 -109 -60 -215 -181 -257 -293 -11 -29 -45 -77 -87 -122
-88 -96 -174 -225 -203 -304 -23 -64 -41 -156 -30 -156 3 0 18 24 32 53 160
316 556 671 979 877 238 116 390 130 462 42 l23 -27 0 33 c0 25 -8 42 -29 61
-57 54 -158 64 -291 31z"/>
<path d="M1025 1233 l-50 -27 45 -7 c96 -15 192 -63 267 -132 24 -22 43 -46
43 -54 0 -15 -67 -113 -77 -113 -3 0 -23 16 -44 35 -21 19 -67 49 -101 67 -61
32 -67 33 -178 33 -108 0 -119 -2 -175 -30 -293 -146 -290 -534 5 -673 49 -24
67 -27 171 -27 111 0 117 1 182 34 154 78 235 231 206 391 -6 36 -17 74 -24
85 -11 18 -8 26 26 69 46 57 115 195 123 247 5 27 1 42 -15 62 -11 15 -24 27
-28 27 -5 0 -11 -27 -14 -60 -11 -106 -17 -108 -89 -36 -55 54 -186 137 -214
136 -5 -1 -31 -13 -59 -27z m18 -234 c26 -12 57 -57 57 -84 0 -9 -7 -32 -16
-51 -30 -63 -121 -68 -160 -8 -29 43 -23 92 14 125 34 31 66 36 105 18z m-40
-240 c49 -26 48 -53 -4 -177 -49 -114 -60 -148 -53 -166 8 -21 41 -7 74 30 31
36 50 43 50 19 0 -26 -64 -88 -115 -111 -58 -27 -130 -31 -162 -9 -41 29 -38
65 12 182 26 59 53 121 61 137 9 19 11 33 5 39 -11 11 -18 6 -85 -47 -28 -22
-40 -26 -48 -18 -9 9 -7 17 8 33 27 30 101 80 132 89 40 12 101 11 125 -1z"/>
<path d="M1396 954 c-4 -9 -1 -23 5 -30 6 -7 22 -44 35 -81 23 -64 24 -66 19
-23 -6 52 -33 137 -45 145 -4 3 -11 -2 -14 -11z"/>
<path d="M337 742 c-36 -36 -47 -55 -47 -79 0 -43 34 -148 69 -210 33 -59 35
-57 -64 -78 -50 -11 -65 -11 -92 0 -18 8 -36 21 -39 30 -10 25 -24 17 -24 -14
0 -36 18 -56 66 -71 40 -14 123 -6 186 16 l40 14 48 -43 c48 -43 143 -99 190
-111 14 -4 1 7 -28 24 -83 50 -167 141 -207 225 -43 89 -58 166 -53 268 3 42
4 77 3 77 0 0 -22 -22 -48 -48z"/>
<path d="M1405 613 c-60 -173 -81 -223 -94 -223 -6 0 -11 -4 -11 -10 0 -5 25
-10 55 -10 30 0 55 5 55 10 0 6 -4 10 -9 10 -16 0 -22 33 -10 67 10 32 12 33
64 33 39 0 54 -4 59 -16 10 -25 7 -84 -4 -84 -5 0 -10 -4 -10 -10 0 -6 28 -10
65 -10 36 0 65 2 65 5 0 3 -6 16 -14 28 -8 12 -31 85 -51 162 -50 187 -49 185
-84 185 -28 0 -30 -3 -76 -137z m75 -10 c7 -32 15 -64 17 -70 4 -9 -8 -13 -42
-13 -34 0 -46 4 -42 13 2 6 13 38 23 70 10 31 21 57 24 57 4 0 13 -26 20 -57z"/>
<path d="M1666 742 c-3 -5 1 -12 9 -16 12 -4 15 -33 15 -165 0 -96 -4 -162
-10 -166 -25 -16 -5 -25 55 -25 61 0 84 11 50 24 -11 4 -15 22 -15 69 l0 65
55 4 c64 5 91 25 105 77 13 48 0 90 -33 115 -22 16 -47 21 -126 24 -60 3 -101
0 -105 -6z m182 -49 c17 -23 15 -84 -4 -111 -10 -14 -25 -22 -45 -22 l-29 0 0
79 0 80 33 -5 c17 -2 38 -11 45 -21z"/>
<path d="M1986 741 c-3 -5 1 -14 9 -21 22 -18 22 -302 0 -324 -8 -8 -15 -17
-15 -20 0 -3 29 -6 65 -6 36 0 65 2 65 3 0 2 -7 18 -16 35 -9 18 -14 49 -12
74 l3 43 50 5 c83 9 115 43 115 119 0 54 -24 79 -89 91 -67 12 -168 13 -175 1z
m174 -47 c9 -9 15 -33 15 -60 0 -52 -23 -77 -65 -72 -23 3 -25 7 -28 67 -4 83
1 95 36 86 15 -3 34 -13 42 -21z"/>
<path d="M2354 734 c-35 -17 -54 -50 -54 -96 0 -31 41 -79 104 -121 60 -41 50
-117 -15 -117 -23 0 -34 7 -47 30 -9 16 -25 30 -34 30 -26 0 -25 -66 1 -80 32
-16 129 -12 162 7 65 39 59 147 -10 188 -82 49 -109 95 -75 129 26 26 63 20
82 -14 24 -42 42 -38 42 9 0 32 -4 40 -22 45 -40 10 -102 6 -134 -10z"/>
<path d="M2639 727 c-50 -33 -73 -88 -73 -172 1 -123 49 -185 142 -185 103 0
154 64 155 194 0 52 -5 83 -19 111 -36 72 -137 98 -205 52z m124 -39 c16 -22
20 -43 21 -120 1 -107 -14 -155 -50 -164 -60 -15 -87 29 -88 144 -1 48 2 99 7
114 17 62 73 75 110 26z"/>
<path d="M2920 741 c0 -3 7 -15 15 -25 12 -15 15 -52 15 -156 0 -104 -3 -141
-15 -156 -23 -31 -19 -34 50 -34 36 0 65 3 65 6 0 3 -7 12 -15 20 -10 11 -15
36 -15 80 l0 64 29 0 c21 0 32 -6 36 -20 3 -11 13 -20 21 -20 11 0 14 15 14
60 0 47 -3 60 -15 60 -8 0 -15 -7 -15 -15 0 -18 -37 -38 -56 -31 -12 4 -14 21
-12 72 3 58 6 68 23 70 35 5 62 -7 74 -32 19 -42 41 -30 41 21 l0 46 -120 -2
c-66 0 -120 -4 -120 -8z"/>
<path d="M3200 700 c0 -38 4 -50 15 -50 8 0 15 6 15 13 0 20 22 44 48 52 l22
6 0 -160 c0 -96 -4 -162 -10 -166 -25 -16 -5 -25 55 -25 61 0 84 11 50 24 -12
4 -15 32 -15 160 0 85 4 157 8 160 19 11 51 -8 61 -35 5 -16 17 -29 25 -29 12
0 16 11 16 50 l0 50 -145 0 -145 0 0 -50z"/>
<path d="M2800 296 c7 -9 10 -39 9 -72 -2 -32 1 -59 7 -61 5 -2 8 28 6 72 -3
60 -7 75 -19 75 -12 0 -13 -3 -3 -14z"/>
<path d="M3090 300 c0 -5 5 -10 10 -10 6 0 10 5 10 10 0 6 -4 10 -10 10 -5 0
-10 -4 -10 -10z"/>
<path d="M2600 294 c8 -4 21 -14 28 -23 13 -14 13 -14 10 4 -2 13 -12 21 -28
22 -14 1 -18 0 -10 -3z"/>
<path d="M2556 274 c-8 -22 0 -32 40 -49 25 -10 35 -20 32 -32 -5 -25 -46 -29
-63 -6 -13 16 -14 16 -15 1 0 -34 81 -36 94 -2 8 22 -1 34 -41 51 -27 11 -34
19 -30 34 6 23 -8 26 -17 3z"/>
<path d="M3004 273 c-16 -25 4 -113 25 -113 12 0 13 2 3 8 -8 6 -12 27 -11 60
2 58 -2 69 -17 45z"/>
<path d="M2686 245 c-17 -17 -20 -34 -10 -59 10 -27 19 -18 19 21 0 34 3 38
25 38 22 0 25 -4 25 -37 0 -33 2 -35 14 -23 11 11 13 21 5 42 -11 33 -53 43
-78 18z"/>
<path d="M2868 223 c5 -44 18 -63 41 -62 13 1 13 2 -1 6 -14 3 -18 15 -18 49
0 29 -4 44 -13 44 -9 0 -12 -11 -9 -37z"/>
<path d="M2935 218 c0 -41 9 -58 30 -58 5 0 4 5 -3 12 -7 7 -12 29 -12 50 0
21 -3 38 -7 38 -5 0 -8 -19 -8 -42z"/>
<path d="M3088 248 c16 -16 15 -61 0 -77 -11 -10 -10 -11 5 -6 24 10 25 95 0
95 -13 0 -14 -3 -5 -12z"/>
<path d="M3162 248 c-30 -30 -4 -95 35 -85 15 4 14 5 -4 6 -43 2 -42 81 2 81
27 0 40 -28 30 -61 -5 -15 -4 -19 4 -15 15 9 14 59 -1 74 -7 7 -21 12 -33 12
-12 0 -26 -5 -33 -12z"/>
<path d="M3268 254 c6 -3 12 -23 12 -45 0 -21 4 -39 9 -39 5 0 8 19 7 42 -1
35 -5 43 -21 45 -11 2 -14 0 -7 -3z"/>
<path d="M3334 247 c14 -10 17 -23 14 -45 -3 -24 0 -32 15 -36 15 -4 17 -2 8
7 -6 6 -11 28 -11 49 0 32 -3 38 -22 38 -21 0 -21 -1 -4 -13z"/>
<path d="M3407 253 c-15 -15 -5 -35 23 -44 29 -11 42 -39 18 -39 -6 0 -8 -3
-5 -6 7 -8 37 14 37 27 0 5 -13 15 -30 24 -16 9 -30 20 -30 25 0 15 37 12 43
-2 3 -8 6 -6 6 5 1 12 -7 17 -27 17 -16 0 -32 -3 -35 -7z"/>
<path d="M3400 175 c0 -8 7 -15 16 -15 14 0 14 3 4 15 -7 8 -14 15 -16 15 -2
0 -4 -7 -4 -15z"/>
<path d="M2042 68 c1 -41 1 -41 5 -8 3 19 10 38 16 42 8 5 6 8 -5 8 -15 0 -18
-8 -16 -42z"/>
<path d="M2333 70 c-1 -25 1 -37 4 -27 2 9 14 17 25 17 14 0 18 -5 14 -15 -3
-8 -1 -15 4 -15 12 0 8 63 -5 72 -5 4 -14 8 -20 8 -5 -1 -2 -5 8 -11 19 -11
14 -29 -8 -29 -7 0 -16 10 -18 23 -2 12 -4 2 -4 -23z"/>
<path d="M2838 70 c-2 -22 0 -40 4 -40 5 0 8 7 8 15 0 8 7 15 16 15 11 0 14
-5 10 -16 -4 -10 -1 -14 6 -12 15 5 19 41 7 60 -7 10 -9 9 -9 -4 0 -10 -7 -18
-15 -18 -18 0 -20 26 -2 33 7 4 6 6 -4 6 -13 1 -18 -10 -21 -39z"/>
<path d="M3170 70 c0 -22 5 -40 11 -40 5 0 8 4 4 9 -3 6 3 14 12 20 17 9 17
10 1 16 -10 4 -18 11 -18 15 0 5 8 11 18 13 13 4 11 5 -5 6 -20 1 -23 -4 -23
-39z"/>
<path d="M2092 80 c0 -14 2 -19 5 -12 2 6 2 18 0 25 -3 6 -5 1 -5 -13z"/>
<path d="M2242 65 c0 -22 2 -34 5 -27 3 8 9 10 16 3 9 -6 12 -3 12 14 0 13 -5
21 -12 18 -6 -2 -13 4 -16 14 -3 10 -5 0 -5 -22z"/>
<path d="M2470 67 c0 -20 3 -38 8 -41 8 -5 7 62 -2 71 -3 4 -6 -10 -6 -30z"/>
<path d="M3040 68 c0 -21 2 -38 4 -38 9 0 12 50 5 62 -6 8 -9 -1 -9 -24z"/>
<path d="M3105 88 c-6 -16 -1 -45 8 -54 4 -4 7 9 7 29 0 37 -7 48 -15 25z"/>
<path d="M2500 68 c0 -19 2 -20 10 -8 13 19 13 30 0 30 -5 0 -10 -10 -10 -22z"/>
<path d="M2670 61 c0 -17 2 -31 4 -31 8 0 13 51 5 56 -5 3 -9 -9 -9 -25z"/>
<path d="M3300 73 c0 -10 5 -25 10 -33 7 -11 10 -7 10 18 0 17 -4 32 -10 32
-5 0 -10 -8 -10 -17z"/>
<path d="M2152 55 c0 -16 2 -22 5 -12 2 9 2 23 0 30 -3 6 -5 -1 -5 -18z"/>
<path d="M2182 55 c0 -16 2 -22 5 -12 2 9 2 23 0 30 -3 6 -5 -1 -5 -18z"/>
<path d="M2211 64 c0 -11 3 -14 6 -6 3 7 2 16 -1 19 -3 4 -6 -2 -5 -13z"/>
<path d="M2406 64 c-4 -9 -2 -22 4 -28 7 -7 10 -6 10 2 0 7 9 12 20 12 14 0
18 5 13 16 -5 13 -7 13 -14 2 -8 -11 -10 -11 -18 0 -6 11 -10 10 -15 -4z"/>
<path d="M2534 67 c-4 -11 -1 -23 6 -30 10 -9 11 -9 6 1 -5 8 0 12 13 12 13 0
21 6 21 18 0 14 -2 15 -10 2 -9 -13 -11 -13 -19 0 -9 12 -11 12 -17 -3z"/>
<path d="M2600 55 c0 -32 6 -32 12 0 3 14 1 25 -3 25 -5 0 -9 -11 -9 -25z"/>
<path d="M2700 55 c0 -14 3 -25 8 -25 4 0 7 11 7 25 0 14 -3 25 -7 25 -5 0 -8
-11 -8 -25z"/>
<path d="M2737 56 l5 -25 22 22 c13 12 19 24 13 26 -5 2 -13 -3 -18 -10 -6
-10 -9 -11 -9 -1 0 6 -4 12 -9 12 -4 0 -6 -11 -4 -24z"/>
<path d="M2910 53 c0 -29 2 -29 19 5 10 18 9 22 -4 22 -10 0 -15 -9 -15 -27z"/>
<path d="M2952 55 c0 -16 2 -22 5 -12 2 9 2 23 0 30 -3 6 -5 -1 -5 -18z"/>
<path d="M2973 64 c-3 -8 -2 -19 3 -24 5 -5 9 1 9 16 0 28 -3 30 -12 8z"/>
<path d="M3008 43 c4 -30 2 -35 -12 -30 -9 4 -16 2 -16 -3 0 -14 27 -12 36 2
12 20 12 68 -1 68 -7 0 -9 -14 -7 -37z"/>
<path d="M3078 55 c6 -32 12 -32 12 0 0 14 -4 25 -9 25 -4 0 -6 -11 -3 -25z"/>
<path d="M3240 55 c0 -14 4 -25 9 -25 4 0 6 11 3 25 -6 32 -12 32 -12 0z"/>
<path d="M3278 55 c-3 -14 -1 -25 3 -25 5 0 9 11 9 25 0 14 -2 25 -4 25 -2 0
-6 -11 -8 -25z"/>
<path d="M3342 55 c0 -16 2 -22 5 -12 2 9 2 23 0 30 -3 6 -5 -1 -5 -18z"/>
<path d="M3372 55 c0 -16 2 -22 5 -12 2 9 2 23 0 30 -3 6 -5 -1 -5 -18z"/>
<path d="M3400 55 c0 -32 6 -32 12 0 3 14 1 25 -3 25 -5 0 -9 -11 -9 -25z"/>
<path d="M3441 58 c-1 -15 3 -30 9 -33 6 -3 7 1 4 9 -4 11 0 16 15 16 23 0 28
14 9 26 -7 4 -8 3 -4 -4 4 -7 1 -12 -8 -12 -8 0 -17 6 -19 13 -3 6 -6 0 -6
-15z"/>
</g>
</svg>
