<?xml version="1.0" standalone="no"?>
<!DOCTYPE svg PUBLIC "-//W3C//DTD SVG 20010904//EN"
 "http://www.w3.org/TR/2001/REC-SVG-20010904/DTD/svg10.dtd">
<svg version="1.0" xmlns="http://www.w3.org/2000/svg"
 width="375.000000pt" height="134.000000pt" viewBox="0 0 375.000000 134.000000"
 preserveAspectRatio="xMidYMid meet">

<g transform="translate(0.000000,134.000000) scale(0.100000,-0.100000)"
fill="#000000" stroke="none">
<path d="M1850 680 c0 -360 3 -550 10 -550 7 0 10 190 10 550 0 360 -3 550
-10 550 -7 0 -10 -190 -10 -550z"/>
<path d="M1600 1196 c0 -2 8 -10 18 -17 15 -13 16 -12 3 4 -13 16 -21 21 -21
13z"/>
<path d="M70 1110 l0 -60 30 0 c17 0 30 -1 30 -3 0 -3 196 -687 205 -716 5
-18 2 -21 -24 -21 l-31 0 0 -60 0 -60 195 0 195 0 0 59 0 60 -34 3 -34 3 106
368 106 367 33 0 33 0 0 60 0 60 -140 0 -140 0 0 -60 c0 -57 1 -60 25 -60 14
0 25 -3 25 -7 1 -17 -174 -623 -180 -623 -6 0 -181 606 -180 623 0 4 11 7 25
7 24 0 25 3 25 60 l0 60 -135 0 -135 0 0 -60z"/>
<path d="M1050 1110 l0 -60 30 0 30 0 0 -370 0 -370 -30 0 -30 0 0 -60 0 -60
130 0 130 0 0 60 0 60 -30 0 -30 0 0 150 0 150 153 0 153 0 62 74 62 74 0 132
0 132 -62 73 -63 73 -252 1 -253 1 0 -60z m449 -99 c29 -36 31 -44 31 -123 0
-78 -2 -86 -31 -121 l-30 -37 -110 0 -109 0 0 160 0 160 109 0 109 0 31 -39z"/>
<path d="M2036 1013 c24 -75 49 -140 56 -144 15 -9 15 -8 68 156 36 114 41
140 21 119 -10 -9 -60 -168 -68 -217 -3 -15 -9 -29 -13 -32 -4 -2 -24 54 -45
125 -22 77 -43 130 -50 130 -9 0 1 -44 31 -137z"/>
<path d="M2230 1135 c0 -8 5 -15 10 -15 6 0 10 7 10 15 0 8 -4 15 -10 15 -5 0
-10 -7 -10 -15z"/>
<path d="M2420 1100 c0 -54 -1 -56 -30 -38 -31 19 -73 -1 -87 -42 -17 -46 -7
-109 19 -137 25 -27 45 -29 76 -7 12 8 22 10 22 5 0 -6 5 -11 10 -11 6 0 10
53 10 140 0 87 -4 140 -10 140 -5 0 -10 -22 -10 -50z m-21 -64 c19 -23 25 -83
11 -116 -15 -37 -45 -48 -71 -25 -44 41 -27 155 24 155 14 0 30 -6 36 -14z"/>
<path d="M2848 1010 c4 -184 22 -184 22 0 0 105 -3 140 -12 140 -10 0 -12 -33
-10 -140z"/>
<path d="M3298 1010 c2 -77 7 -140 12 -140 5 0 10 21 12 47 2 25 8 48 13 50 6
1 23 -22 39 -53 16 -30 33 -51 37 -47 5 5 -6 36 -24 70 l-32 62 34 35 c25 26
30 36 19 36 -9 0 -31 -18 -48 -40 -17 -22 -35 -40 -38 -40 -4 0 -6 36 -4 80 3
61 0 80 -10 80 -10 0 -12 -29 -10 -140z"/>
<path d="M1660 1126 c0 -2 8 -10 18 -17 15 -13 16 -12 3 4 -13 16 -21 21 -21
13z"/>
<path d="M2230 970 c0 -60 4 -100 10 -100 6 0 10 40 10 100 0 60 -4 100 -10
100 -6 0 -10 -40 -10 -100z"/>
<path d="M2480 1062 c0 -4 14 -50 30 -102 17 -52 30 -101 30 -108 0 -7 -12
-24 -26 -39 -14 -14 -23 -27 -20 -30 9 -10 44 8 49 25 3 9 21 70 41 134 40
131 39 128 27 128 -5 0 -19 -38 -32 -85 -21 -77 -39 -109 -39 -70 0 25 -44
155 -52 155 -4 0 -8 -3 -8 -8z"/>
<path d="M2676 1054 c-17 -17 -22 -44 -7 -44 5 0 11 9 14 20 4 14 14 20 34 20
33 0 53 -16 53 -41 0 -18 -9 -22 -68 -34 -38 -8 -58 -40 -48 -79 8 -34 50 -45
88 -23 15 9 28 12 28 7 0 -6 5 -10 10 -10 6 0 10 35 10 84 0 97 -11 116 -65
116 -18 0 -41 -7 -49 -16z m94 -107 c0 -51 -56 -87 -88 -55 -15 15 -15 45 0
54 10 6 58 20 81 23 4 1 7 -9 7 -22z"/>
<path d="M2936 1054 c-17 -16 -22 -44 -8 -44 4 0 13 9 20 20 22 36 82 20 82
-21 0 -18 -9 -22 -68 -34 -38 -8 -58 -40 -48 -79 8 -34 50 -45 88 -23 16 9 30
12 33 6 15 -24 20 -2 17 78 -2 49 -8 94 -14 100 -15 18 -83 16 -102 -3z m94
-111 c0 -33 -26 -63 -55 -63 -51 0 -57 65 -7 76 15 3 32 7 37 9 21 7 25 4 25
-22z"/>
<path d="M3111 973 c-1 -63 3 -103 9 -103 6 0 10 30 10 71 0 81 11 109 43 109
38 0 47 -19 47 -102 0 -45 4 -78 10 -78 6 0 10 34 10 83 0 69 -3 87 -18 100
-23 21 -56 22 -76 2 -19 -19 -24 -19 -29 3 -3 9 -5 -29 -6 -85z"/>
<path d="M3477 1052 c-18 -19 -23 -42 -9 -42 4 0 13 9 20 20 23 37 86 21 80
-21 -2 -17 -10 -25 -28 -27 -74 -9 -106 -50 -75 -98 18 -28 51 -31 83 -8 21
15 24 15 35 0 10 -13 11 3 9 76 -2 51 -9 99 -14 106 -16 19 -82 15 -101 -6z
m93 -109 c0 -33 -26 -63 -56 -63 -26 0 -47 30 -38 53 4 13 49 31 87 36 4 1 7
-11 7 -26z"/>
<path d="M3650 970 c0 -60 4 -100 10 -100 6 0 10 31 10 72 0 75 17 112 46 101
8 -3 14 1 14 11 0 20 -39 21 -46 1 -4 -8 -10 -15 -15 -15 -4 0 -6 7 -3 15 4 8
1 15 -5 15 -7 0 -11 -34 -11 -100z"/>
<path d="M1699 693 l-24 -28 28 24 c25 23 32 31 24 31 -2 0 -14 -12 -28 -27z"/>
<path d="M1639 623 c-13 -16 -12 -17 4 -4 16 13 21 21 13 21 -2 0 -10 -8 -17
-17z"/>
<path d="M2020 436 c0 -91 4 -146 10 -146 6 0 10 26 10 59 l0 58 58 6 c66 7
92 30 92 82 0 56 -27 78 -104 83 l-66 4 0 -146z m140 84 c10 -25 10 -34 -4
-55 -14 -21 -24 -25 -66 -25 l-50 0 0 55 0 55 54 0 c50 0 54 -2 66 -30z"/>
<path d="M2420 435 c0 -90 4 -145 10 -145 6 0 10 55 10 145 0 90 -4 145 -10
145 -6 0 -10 -55 -10 -145z"/>
<path d="M3110 435 c0 -90 4 -145 10 -145 6 0 10 29 10 68 0 75 16 116 45 120
39 5 48 -13 55 -104 l7 -89 2 96 c0 62 -3 99 -11 107 -15 15 -64 16 -73 2 -14
-23 -25 -7 -25 40 0 28 -4 50 -10 50 -6 0 -10 -55 -10 -145z"/>
<path d="M3490 565 c0 -8 5 -15 10 -15 6 0 10 7 10 15 0 8 -4 15 -10 15 -5 0
-10 -7 -10 -15z"/>
<path d="M2670 531 c0 -16 -6 -32 -12 -35 -10 -5 -10 -7 0 -12 8 -4 12 -32 12
-88 0 -81 9 -106 37 -106 7 0 13 7 13 15 0 8 -7 15 -15 15 -12 0 -15 16 -15
80 0 64 3 80 15 80 8 0 15 5 15 10 0 6 -7 10 -15 10 -10 0 -15 10 -15 30 0 17
-4 30 -10 30 -5 0 -10 -13 -10 -29z"/>
<path d="M2250 478 c-31 -33 -29 -136 3 -166 44 -41 100 -24 118 37 14 48 5
105 -22 132 -26 26 -73 25 -99 -3z m76 -6 c50 -33 41 -145 -14 -159 -37 -9
-65 25 -65 81 0 65 40 104 79 78z"/>
<path d="M2501 438 c10 -35 25 -83 33 -108 16 -53 7 -86 -26 -99 -21 -8 -21
-10 -5 -16 29 -12 42 11 82 140 20 66 38 126 40 133 2 6 0 12 -5 12 -5 0 -19
-33 -31 -72 -29 -102 -29 -101 -35 -96 -2 3 -15 40 -27 83 -12 43 -28 80 -34
82 -8 3 -5 -18 8 -59z"/>
<path d="M2775 480 c-12 -14 -20 -41 -23 -80 -4 -53 -2 -61 21 -84 15 -15 38
-26 52 -26 30 0 88 51 66 58 -7 2 -19 -5 -27 -17 -29 -41 -94 -12 -94 41 0 15
9 18 66 18 l66 0 -6 38 c-12 66 -81 96 -121 52z m83 -12 c5 -7 13 -23 16 -35
7 -22 5 -23 -48 -23 -61 0 -68 9 -40 48 17 24 56 29 72 10z"/>
<path d="M2961 474 c-45 -58 -16 -184 43 -184 28 0 62 24 69 50 7 28 -7 25
-27 -5 -19 -30 -46 -32 -69 -7 -24 26 -23 113 1 135 25 23 49 21 64 -3 15 -23
28 -26 28 -6 0 48 -76 62 -109 20z"/>
<path d="M3300 395 c0 -63 4 -105 10 -105 6 0 10 33 10 78 0 64 4 82 18 95 10
10 25 17 33 17 30 0 39 -24 39 -107 0 -49 4 -83 10 -83 6 0 10 36 10 89 0 68
-4 93 -16 105 -20 21 -53 20 -76 -1 -17 -15 -18 -15 -18 0 0 10 -4 17 -10 17
-6 0 -10 -42 -10 -105z"/>
<path d="M3490 394 c0 -67 4 -103 10 -99 6 3 10 50 10 106 0 59 -4 99 -10 99
-6 0 -10 -42 -10 -106z"/>
<path d="M3581 481 c-27 -27 -35 -79 -21 -129 16 -62 70 -82 110 -42 21 21 27
50 10 50 -5 0 -10 -6 -10 -14 0 -22 -28 -39 -53 -32 -44 11 -60 82 -32 136 18
36 58 41 77 10 15 -23 28 -26 28 -7 0 43 -76 61 -109 28z"/>
<path d="M353 123 c71 -2 183 -2 250 0 67 1 10 3 -128 3 -137 0 -192 -2 -122
-3z"/>
<path d="M1087 123 c51 -2 135 -2 185 0 51 1 10 3 -92 3 -102 0 -143 -2 -93
-3z"/>
</g>
</svg>
