<?xml version="1.0" standalone="no"?>
<!DOCTYPE svg PUBLIC "-//W3C//DTD SVG 20010904//EN"
 "http://www.w3.org/TR/2001/REC-SVG-20010904/DTD/svg10.dtd">
<svg version="1.0" xmlns="http://www.w3.org/2000/svg"
 width="1204.000000pt" height="229.000000pt" viewBox="0 0 1204.000000 229.000000"
 preserveAspectRatio="xMidYMid meet">

<g transform="translate(0.000000,229.000000) scale(0.100000,-0.100000)"
fill="#000000" stroke="none">
<path d="M2170 2246 c-352 -76 -510 -325 -510 -808 0 -285 49 -478 167 -656
66 -100 148 -171 258 -223 109 -53 197 -69 366 -69 153 0 242 10 362 42 l77
20 0 58 0 58 -71 -24 c-240 -81 -516 -41 -674 98 -169 149 -255 473 -226 846
19 233 68 372 165 467 69 67 140 96 251 103 235 13 408 -109 476 -335 11 -40
15 -43 47 -43 l34 0 -5 43 c-4 23 -9 113 -13 199 -4 100 -11 161 -18 167 -7 6
-68 22 -136 36 -156 33 -443 43 -550 21z"/>
<path d="M3745 2249 c-136 -27 -266 -92 -318 -161 -94 -123 -113 -320 -46
-463 47 -100 137 -168 403 -307 260 -136 347 -207 382 -311 45 -135 -40 -307
-182 -367 -163 -70 -390 -34 -504 80 -41 41 -90 129 -90 163 0 13 -8 17 -36
17 l-36 0 6 -113 c4 -61 9 -144 12 -183 l5 -71 122 -19 c88 -14 175 -19 312
-19 169 0 199 3 270 23 166 48 279 135 337 258 27 58 32 82 36 169 5 117 -11
191 -58 265 -67 105 -167 176 -454 322 -281 144 -355 216 -356 348 0 104 72
206 178 252 61 26 174 34 254 19 77 -16 169 -63 208 -108 33 -37 73 -113 84
-155 5 -23 12 -28 38 -28 l31 0 -6 128 c-4 70 -7 150 -7 178 l0 52 -87 17
c-104 20 -422 29 -498 14z"/>
<path d="M20 2211 c0 -28 1 -29 65 -33 76 -5 110 -25 140 -84 19 -37 20 -65
26 -624 4 -514 7 -592 22 -644 52 -179 172 -281 376 -322 110 -22 397 -15 481
11 134 41 220 110 266 210 53 116 56 146 63 777 6 572 7 587 27 615 29 40 80
63 142 63 51 0 52 0 52 30 l0 30 -297 -2 -298 -3 0 -25 c0 -23 4 -25 63 -31
71 -7 106 -27 137 -80 19 -33 20 -52 20 -599 0 -509 -2 -571 -18 -629 -36
-133 -100 -211 -206 -253 -48 -19 -76 -22 -191 -23 -133 0 -137 1 -202 33 -75
37 -120 83 -155 158 -50 109 -53 148 -53 729 l0 541 23 44 c27 55 72 80 145
80 51 0 52 0 52 30 l0 30 -340 0 -340 0 0 -29z"/>
<path d="M6960 2211 c0 -28 1 -29 65 -33 76 -5 110 -25 140 -84 19 -38 20 -59
20 -719 0 -660 -1 -681 -20 -720 -27 -54 -71 -81 -144 -89 -56 -6 -61 -9 -61
-31 l0 -25 344 0 c189 0 389 5 445 10 378 39 579 198 669 529 24 90 26 110 26
326 0 218 -2 235 -27 329 -40 150 -88 237 -177 326 -123 123 -262 178 -510
200 -63 5 -262 10 -442 10 l-328 0 0 -29z m805 -97 c207 -43 338 -175 395
-397 47 -186 47 -498 0 -681 -69 -270 -240 -404 -538 -421 -120 -6 -160 5
-184 55 -17 32 -18 87 -18 703 0 774 -4 739 90 758 47 9 168 1 255 -17z"/>
<path d="M8740 2052 c-24 -13 -41 -33 -54 -64 -17 -41 -17 -50 -5 -89 38 -119
210 -119 248 -1 12 38 11 49 -3 87 -10 24 -29 51 -43 61 -40 26 -102 29 -143
6z"/>
<path d="M10905 1764 c-50 -26 -75 -55 -117 -140 l-40 -81 -66 24 c-62 23 -78
24 -202 20 -155 -5 -212 -20 -286 -76 -33 -25 -59 -56 -79 -96 -29 -56 -30
-64 -30 -185 0 -122 1 -127 33 -193 19 -37 46 -77 62 -88 l28 -21 -34 -48
c-39 -54 -64 -119 -64 -164 1 -43 33 -111 64 -131 14 -10 26 -20 26 -24 0 -3
-16 -15 -36 -26 -52 -28 -109 -97 -124 -150 -30 -106 13 -211 111 -275 92 -60
166 -75 354 -75 148 1 166 3 238 28 201 70 309 197 310 366 1 96 -26 159 -86
202 -73 53 -119 61 -382 66 -132 2 -255 6 -274 9 -73 12 -102 84 -62 151 l20
32 53 -15 c63 -17 226 -18 300 -3 74 15 163 65 204 113 99 116 98 352 -3 484
l-26 34 21 44 c25 51 55 63 100 40 51 -26 109 -21 143 13 24 24 29 38 29 76 0
38 -5 52 -29 76 -24 24 -38 29 -78 29 -26 0 -61 -7 -78 -16z m-319 -271 c84
-43 130 -162 122 -313 -9 -145 -57 -217 -159 -239 -91 -20 -180 11 -224 77
-82 124 -69 399 21 459 72 46 169 53 240 16z m243 -988 c54 -32 74 -66 74
-127 0 -144 -141 -253 -353 -274 -114 -11 -241 28 -302 93 -88 93 -88 219 -1
300 l38 34 255 -3 c234 -3 258 -5 289 -23z"/>
<path d="M4784 1572 c-154 -46 -239 -141 -213 -236 12 -44 47 -66 103 -66 68
0 97 29 107 111 5 35 17 75 28 89 46 63 192 66 260 6 48 -43 65 -100 69 -243
l4 -131 -68 -6 c-102 -10 -242 -33 -300 -50 -78 -24 -168 -87 -199 -140 -67
-115 -53 -252 35 -337 65 -64 126 -83 237 -76 103 6 177 39 244 108 l47 48 6
-39 c8 -49 47 -95 93 -111 37 -12 191 -8 226 6 9 4 17 17 17 29 0 19 -4 21
-40 18 -59 -6 -88 5 -105 38 -13 24 -15 85 -15 374 0 217 -4 365 -11 398 -22
103 -66 160 -154 199 -70 32 -280 38 -371 11z m354 -664 c-3 -86 -9 -124 -24
-159 -99 -216 -347 -211 -372 7 -7 64 6 110 40 150 57 65 183 111 307 113 l53
1 -4 -112z"/>
<path d="M5745 1574 c-44 -8 -110 -19 -147 -25 -55 -9 -68 -14 -68 -29 0 -13
11 -19 44 -24 59 -9 108 -44 123 -86 16 -46 18 -698 2 -754 -16 -59 -56 -94
-118 -102 -41 -5 -51 -10 -51 -25 0 -18 13 -19 265 -19 252 0 265 1 265 19 0
14 -10 20 -41 25 -60 10 -94 31 -113 70 -23 48 -23 423 0 511 35 138 137 290
218 329 19 9 57 16 84 16 62 0 106 -32 122 -88 6 -22 10 -179 10 -385 0 -302
-2 -354 -16 -383 -19 -39 -53 -60 -113 -70 -31 -5 -41 -11 -41 -25 0 -18 13
-19 265 -19 252 0 265 1 265 19 0 15 -10 20 -48 25 -57 7 -86 26 -110 69 -15
28 -18 76 -22 422 l-5 390 -26 50 c-20 39 -36 55 -78 77 -47 25 -64 28 -146
28 -82 0 -98 -3 -153 -31 -74 -36 -144 -111 -189 -199 l-33 -63 0 147 0 146
-32 -1 c-18 -1 -69 -7 -113 -15z"/>
<path d="M8705 1565 c-77 -13 -143 -24 -147 -24 -5 -1 -8 -9 -8 -20 0 -14 10
-20 42 -25 56 -9 95 -34 113 -72 22 -47 22 -751 0 -794 -21 -41 -60 -68 -111
-76 -34 -5 -44 -10 -44 -25 0 -18 12 -19 265 -19 252 0 265 1 265 19 0 15 -10
20 -50 25 -64 9 -104 42 -119 100 -7 30 -11 194 -11 490 l0 446 -27 -1 c-16
-1 -91 -12 -168 -24z"/>
<path d="M9379 1576 c-70 -20 -147 -66 -185 -110 -74 -86 -114 -223 -114 -390
0 -322 136 -516 400 -572 87 -18 292 -14 375 8 48 13 50 14 53 52 3 32 1 38
-13 32 -48 -18 -149 -26 -212 -16 -225 35 -378 228 -408 514 l-7 66 336 0 336
0 0 58 c0 160 -72 277 -210 341 -49 23 -69 26 -180 28 -80 1 -142 -3 -171 -11z
m206 -67 c77 -21 132 -105 149 -226 l6 -43 -236 0 -236 0 7 38 c18 98 95 200
171 227 48 17 87 18 139 4z"/>
<path d="M11369 1567 c-116 -40 -213 -132 -263 -250 -27 -65 -46 -182 -46
-279 1 -339 184 -548 480 -548 299 0 481 211 480 558 -1 265 -120 461 -319
523 -91 28 -243 26 -332 -4z m235 -58 c46 -13 121 -79 147 -132 42 -80 61
-184 61 -327 1 -250 -56 -401 -173 -461 -52 -26 -146 -26 -198 0 -118 60 -174
209 -174 456 1 157 21 256 70 347 55 101 159 147 267 117z"/>
</g>
</svg>
