<?xml version="1.0" standalone="no"?>
<!DOCTYPE svg PUBLIC "-//W3C//DTD SVG 20010904//EN"
 "http://www.w3.org/TR/2001/REC-SVG-20010904/DTD/svg10.dtd">
<svg version="1.0" xmlns="http://www.w3.org/2000/svg"
 width="2160.000000pt" height="2160.000000pt" viewBox="0 0 2160.000000 2160.000000"
 preserveAspectRatio="xMidYMid meet">

<g transform="translate(0.000000,2160.000000) scale(0.100000,-0.100000)"
fill="#000000" stroke="none">
<path d="M10805 17918 c-3 -7 -4 -310 -3 -673 l3 -660 199 -3 c153 -2 201 1
208 10 9 15 11 1298 2 1322 -5 14 -33 16 -205 16 -151 0 -201 -3 -204 -12z"/>
<path d="M6043 15940 c-73 -72 -133 -136 -133 -143 0 -8 33 -45 73 -83 39 -37
195 -188 346 -334 349 -337 382 -370 473 -457 42 -40 84 -73 93 -73 9 0 68 50
131 112 63 62 118 115 122 118 4 3 16 15 26 27 l19 23 -110 107 c-61 60 -211
205 -334 323 -123 118 -290 280 -372 360 -107 105 -156 146 -175 147 -23 3
-49 -19 -159 -127z"/>
<path d="M15705 16023 c-43 -41 -380 -365 -599 -577 -204 -197 -326 -318 -326
-322 0 -9 263 -260 285 -272 23 -11 32 -4 186 145 89 87 192 187 229 223 449
435 580 565 580 575 0 19 -269 275 -288 275 -9 0 -39 -22 -67 -47z"/>
<path d="M12025 15771 c-50 -4 -103 -14 -120 -23 -16 -8 -43 -18 -60 -21 -25
-5 -78 -31 -164 -82 -63 -37 -160 -154 -211 -255 -65 -129 -70 -139 -70 -162
0 -13 -9 -41 -19 -63 -10 -22 -21 -69 -25 -105 -4 -36 -15 -92 -24 -125 -16
-56 -17 -315 -17 -3765 0 -3439 1 -3708 17 -3750 9 -25 21 -69 27 -98 6 -30
18 -63 26 -75 8 -12 15 -31 15 -42 0 -11 9 -31 20 -45 11 -14 20 -29 20 -35 0
-18 88 -138 136 -187 49 -50 172 -138 193 -138 7 0 29 -9 49 -19 55 -28 209
-61 288 -61 39 0 99 9 139 20 38 11 78 20 88 20 22 0 176 76 232 114 22 15 82
70 134 122 l94 94 59 0 c37 0 71 -6 91 -17 28 -16 62 -18 262 -18 213 0 235 2
293 22 34 13 68 23 75 23 11 0 80 30 117 52 8 5 30 15 49 24 18 8 38 20 45 25
6 5 36 28 66 50 74 54 133 113 183 179 59 78 87 120 87 129 0 5 9 19 19 33 11
13 23 38 27 54 3 16 13 39 21 52 8 13 18 45 23 70 12 71 41 184 54 212 18 37
85 78 146 89 59 10 131 33 195 62 22 10 47 20 55 23 70 26 215 133 295 217 70
74 167 209 180 250 4 13 16 36 26 53 11 17 19 38 19 46 1 8 9 33 20 55 11 22
19 52 20 66 0 15 7 61 16 103 17 85 15 204 -6 331 -7 45 -10 93 -6 110 8 33
75 99 121 121 108 50 275 205 355 330 101 156 137 256 158 431 14 114 14 151
3 265 -7 73 -18 142 -25 153 -8 11 -17 36 -21 55 -4 19 -15 51 -25 70 -10 19
-23 46 -29 60 -25 52 -45 86 -71 120 -40 51 -80 126 -80 149 0 21 22 62 85
156 97 146 143 270 163 443 15 120 15 144 0 265 -15 130 -32 196 -69 269 -11
20 -19 42 -19 48 0 6 -8 23 -18 38 -11 15 -32 47 -48 72 -44 70 -114 151 -175
205 -75 67 -86 76 -143 110 -67 41 -115 93 -122 134 -4 20 0 55 11 90 24 82
33 152 33 271 0 149 -29 303 -72 385 -9 17 -16 38 -16 47 0 9 -5 20 -11 24 -6
3 -18 22 -25 41 -17 39 -105 161 -156 214 -19 19 -63 59 -99 87 -35 29 -71 58
-78 64 -30 25 -190 108 -208 108 -7 0 -30 9 -50 20 -21 11 -49 20 -63 20 -14
0 -57 9 -95 20 -38 11 -80 20 -92 20 -12 0 -37 13 -56 29 -38 34 -63 101 -76
208 -5 39 -16 81 -24 94 -8 13 -18 40 -21 60 -4 21 -13 42 -20 48 -8 7 -17 24
-21 38 -3 15 -15 38 -26 51 -10 14 -19 29 -19 34 0 23 -147 186 -225 251 -90
74 -105 85 -171 116 -23 11 -45 24 -48 30 -4 6 -15 11 -24 11 -9 0 -30 7 -47
16 -16 9 -55 23 -85 30 -30 7 -80 20 -110 29 -41 11 -105 15 -260 15 -238 0
-223 -5 -304 103 -29 40 -62 81 -73 92 -36 36 -97 90 -114 100 -76 45 -138 77
-159 82 -14 4 -43 14 -65 24 -47 20 -231 30 -370 20z m19 -762 l26 -20 0 -424
c0 -374 -2 -424 -16 -436 -22 -18 -154 -16 -165 3 -5 7 -9 139 -9 293 0 269
-1 281 -20 293 -28 17 -28 113 0 160 11 18 20 43 20 57 0 35 19 71 44 83 36
18 91 14 120 -9z m610 -1 c9 -12 16 -30 16 -40 0 -22 33 -24 50 -3 18 22 64
18 86 -6 18 -20 19 -43 22 -388 2 -365 2 -366 -21 -406 -21 -37 -26 -41 -82
-48 -91 -13 -344 -2 -361 15 -29 29 -35 127 -31 472 2 187 7 350 11 361 4 11
24 30 44 42 32 19 52 22 144 23 99 0 108 -2 122 -22z m633 -4 c10 -14 13 -105
13 -445 l0 -428 -22 -7 c-28 -9 -143 -8 -158 1 -6 4 -10 106 -10 287 0 274 -1
282 -21 304 -26 28 -29 92 -7 126 9 13 19 48 23 78 6 40 15 61 37 83 26 27 34
29 80 25 34 -4 56 -12 65 -24z m311 -53 c47 -25 86 -67 101 -110 7 -22 11
-127 11 -297 l0 -264 24 -6 c13 -3 37 -4 52 -2 l29 3 5 177 c5 178 11 207 43
195 8 -3 18 -18 21 -33 4 -15 16 -39 27 -52 10 -14 19 -39 19 -56 0 -18 7 -58
15 -89 19 -75 18 -168 -3 -237 -17 -53 -19 -55 -62 -63 -25 -5 -105 -6 -178
-3 -108 3 -137 8 -153 22 -18 16 -19 35 -19 414 0 295 3 399 12 408 15 15 12
15 56 -7z m-1382 -1314 l35 -37 -3 -389 -3 -389 -24 -26 -24 -26 -194 0 c-108
0 -202 4 -213 10 -36 19 -40 61 -39 439 1 201 4 376 7 388 4 12 23 34 42 48
35 26 35 26 208 23 l174 -3 34 -38z m480 29 c18 -14 19 -32 22 -428 2 -266 -1
-424 -7 -441 -10 -26 -14 -27 -80 -27 -106 0 -101 -16 -101 304 l0 273 -25 23
c-28 27 -31 50 -11 83 8 12 17 42 20 67 6 39 30 100 60 148 10 17 98 15 122
-2z m736 -12 l38 -27 0 -408 c0 -396 -1 -410 -20 -429 -19 -19 -33 -20 -220
-20 l-199 0 -26 37 -25 38 0 377 0 376 27 32 c14 18 36 36 47 40 12 5 93 9
180 9 157 1 161 1 198 -25z m494 12 c18 -14 19 -32 22 -441 2 -319 0 -431 -9
-442 -9 -10 -31 -13 -83 -11 l-71 3 -3 287 -2 288 -26 17 c-25 16 -26 19 -19
86 3 38 15 88 25 111 10 22 22 54 25 69 3 16 15 32 28 37 34 14 91 12 113 -4z
m724 -2 c51 -34 50 -22 50 -450 0 -368 -1 -404 -17 -423 -17 -21 -24 -22 -222
-19 l-203 3 -24 45 -24 45 0 347 c0 337 1 349 22 392 33 68 55 76 238 76 128
0 160 -3 180 -16z m-2600 -1354 c19 -19 20 -33 20 -443 0 -316 -3 -426 -12
-435 -7 -7 -42 -12 -89 -12 -61 0 -78 3 -83 16 -3 9 -6 140 -6 292 0 266 -1
278 -20 290 -27 17 -28 107 -1 160 10 20 21 55 24 77 8 54 36 75 98 75 36 0
54 -5 69 -20z m710 5 c17 -9 39 -33 50 -55 19 -37 20 -58 20 -397 -1 -355 -1
-358 -24 -398 l-23 -40 -209 0 -209 0 -15 30 c-12 25 -16 92 -18 378 -4 399 1
444 51 476 29 19 48 21 190 21 122 0 165 -3 187 -15z m520 -5 c19 -19 20 -33
20 -443 0 -316 -3 -426 -12 -435 -12 -12 -134 -17 -162 -6 -14 5 -16 40 -16
287 0 273 -1 281 -21 303 -26 28 -29 92 -7 126 9 13 19 47 23 76 4 34 16 64
32 82 21 26 32 30 74 30 36 0 54 -5 69 -20z m740 -16 l40 -36 0 -386 0 -385
-26 -34 -25 -33 -199 0 c-192 0 -200 1 -220 22 -19 21 -20 33 -20 422 0 221 4
406 8 411 4 6 20 21 36 33 27 21 39 22 197 22 l169 0 40 -36z m494 14 c14 -19
16 -79 16 -443 0 -314 -3 -424 -12 -433 -15 -15 -132 -16 -159 -2 -18 10 -19
24 -19 289 0 261 -1 279 -19 295 -30 27 -34 61 -11 103 11 21 20 52 20 71 0
18 14 57 31 87 l31 55 53 0 c44 0 57 -4 69 -22z m728 -4 c21 -15 41 -36 44
-48 2 -12 3 -196 2 -409 l-3 -389 -24 -19 c-21 -17 -41 -19 -220 -19 l-197 0
-25 33 -24 32 0 388 0 387 39 35 40 35 165 0 c162 0 166 0 203 -26z m-3075
-1359 l38 -35 3 -352 c2 -194 1 -371 -3 -393 -3 -23 -17 -53 -31 -68 l-25 -27
-193 0 c-176 0 -196 2 -217 19 l-24 19 -3 401 -3 401 38 35 38 35 172 0 172 0
38 -35z m492 21 c8 -9 10 -136 9 -452 l-3 -439 -76 -3 c-115 -4 -109 -23 -109
306 0 265 -1 278 -20 295 -23 20 -26 58 -6 90 7 12 16 43 20 70 3 26 12 58 21
72 8 14 22 36 30 50 13 22 23 25 69 25 33 0 58 -5 65 -14z m727 -8 c16 -12 32
-27 36 -33 4 -5 8 -188 8 -406 0 -386 -1 -397 -21 -423 l-20 -26 -199 0 -198
0 -26 31 -26 31 0 386 c0 213 4 392 8 397 4 6 22 23 40 38 l34 27 167 0 c158
0 170 -1 197 -22z m505 5 c18 -21 26 -841 9 -873 -9 -17 -21 -20 -78 -20 -40
0 -73 5 -80 12 -9 9 -12 88 -12 293 l0 282 -25 11 c-14 6 -25 20 -24 29 2 41
27 151 42 185 9 21 17 44 17 52 0 30 30 46 84 46 38 0 58 -5 67 -17z m725 -4
c23 -14 35 -30 39 -52 3 -18 5 -207 3 -420 -3 -373 -4 -389 -23 -403 -16 -12
-58 -14 -219 -12 l-200 3 -23 40 c-22 39 -23 45 -23 398 0 337 1 360 20 397
34 67 44 70 229 70 148 0 167 -2 197 -21z m514 1 c19 -19 20 -33 20 -443 0
-316 -3 -426 -12 -435 -7 -7 -42 -12 -89 -12 -61 0 -78 3 -83 16 -3 9 -6 140
-6 292 0 266 -1 278 -20 290 -27 17 -28 107 -1 160 10 20 21 55 24 77 8 54 36
75 98 75 36 0 54 -5 69 -20z m-3082 -1346 l22 -15 0 -428 c0 -319 -3 -430 -12
-439 -7 -7 -41 -12 -83 -12 -42 0 -76 5 -83 12 -9 9 -12 88 -12 293 0 268 -1
281 -20 298 -15 13 -20 29 -20 70 0 33 7 66 20 90 11 20 20 51 20 67 0 49 38
80 97 80 28 0 58 -7 71 -16z m720 0 c12 -8 31 -33 42 -54 19 -37 20 -60 20
-392 l0 -353 -24 -45 -24 -45 -199 -3 c-148 -2 -203 1 -216 10 -9 7 -21 37
-27 67 -12 65 -13 678 -1 741 6 30 18 52 38 67 27 22 36 23 198 23 139 0 175
-3 193 -16z m516 0 c14 -14 16 -68 16 -443 0 -319 -3 -430 -12 -439 -7 -7 -41
-12 -83 -12 -42 0 -76 5 -83 12 -9 9 -12 87 -12 290 0 258 -1 278 -19 295 -30
28 -34 72 -12 116 11 21 22 60 26 88 4 31 16 61 32 79 22 26 31 30 78 30 35 0
59 -5 69 -16z m739 -20 l37 -35 0 -385 0 -385 -26 -35 -26 -34 -198 0 -199 0
-20 26 c-20 26 -21 37 -21 425 l0 398 33 30 32 31 175 0 175 0 38 -36z m497
10 c15 -39 13 -857 -2 -872 -18 -18 -143 -16 -162 4 -14 13 -16 54 -16 289 0
230 -2 276 -15 289 -31 31 -36 64 -15 104 11 20 20 52 20 70 0 30 25 90 53
130 6 7 33 12 68 12 55 0 60 -2 69 -26z m-2223 -1356 l33 -32 0 -395 0 -395
-27 -28 -27 -28 -192 0 -192 0 -26 31 -26 31 0 393 0 393 35 31 36 31 176 0
177 0 33 -32z m493 13 c15 -30 14 -773 -2 -789 -20 -20 -37 -14 -90 37 -70 67
-78 95 -78 282 0 153 0 156 -25 179 -28 26 -31 53 -10 90 8 14 14 39 15 56 0
17 14 61 30 98 l30 66 60 0 c48 0 61 -4 70 -19z m738 -12 l32 -30 0 -392 c-1
-416 1 -405 -50 -440 -21 -14 -51 -17 -206 -17 l-182 0 -26 34 -26 35 0 383 0
383 35 38 34 37 178 0 178 0 33 -31z"/>
<path d="M12515 14838 c-3 -7 -4 -137 -3 -288 l3 -275 60 0 60 0 0 285 0 285
-58 3 c-40 2 -59 -1 -62 -10z"/>
<path d="M11956 13502 c-3 -5 -6 -134 -6 -287 -1 -305 -4 -292 60 -291 l35 1
0 290 0 290 -42 3 c-22 2 -44 -1 -47 -6z"/>
<path d="M13185 13498 c-3 -7 -4 -139 -3 -293 l3 -280 36 -2 c66 -4 65 -9 59
302 l-5 280 -43 3 c-28 2 -44 -1 -47 -10z"/>
<path d="M14406 13495 c-9 -24 -8 -563 2 -568 4 -3 33 -2 65 1 l57 5 -2 286
-3 286 -56 3 c-45 2 -58 0 -63 -13z"/>
<path d="M12517 12154 c-4 -4 -7 -134 -7 -289 l0 -283 58 -5 c31 -2 60 -2 65
2 4 4 6 135 5 292 l-3 284 -55 3 c-31 2 -59 0 -63 -4z"/>
<path d="M13772 12148 c-14 -14 -18 -567 -4 -569 35 -7 79 -6 89 3 10 8 13 74
13 272 0 143 -3 271 -6 284 -5 18 -13 22 -43 22 -20 0 -42 -5 -49 -12z"/>
<path d="M14995 12147 c-3 -7 -4 -138 -3 -292 l3 -280 35 -1 c73 -2 70 -13 70
276 0 144 -4 270 -10 284 -8 22 -16 26 -50 26 -24 0 -43 -5 -45 -13z"/>
<path d="M11911 10791 c-7 -12 -11 -118 -11 -289 0 -300 -5 -279 70 -278 l35
1 0 290 0 290 -42 3 c-33 2 -44 -1 -52 -17z"/>
<path d="M13136 10788 c-8 -33 -7 -558 2 -560 24 -5 69 -6 85 -2 16 5 17 27
17 283 0 202 -3 280 -12 289 -7 7 -29 12 -49 12 -30 0 -38 -4 -43 -22z"/>
<path d="M14367 10804 c-9 -10 -9 -572 1 -577 4 -3 33 -2 65 1 l57 5 -2 286
-3 286 -55 3 c-31 2 -59 0 -63 -4z"/>
<path d="M12558 9463 l-48 -4 0 -288 0 -289 58 -5 c31 -2 60 -2 65 2 4 4 6
137 5 297 -3 248 -5 289 -18 290 -8 0 -36 -1 -62 -3z"/>
<path d="M13770 9456 c-6 -6 -10 -110 -10 -292 l0 -282 43 -4 c23 -3 48 -1 55
5 9 7 12 74 11 276 0 146 -4 275 -8 286 -9 22 -72 30 -91 11z"/>
<path d="M12040 8094 c-16 -40 -13 -564 3 -565 6 0 26 -2 42 -3 57 -5 55 -16
55 289 0 308 2 298 -58 302 -27 2 -35 -3 -42 -23z"/>
<path d="M13271 8107 c-17 -17 -15 -573 2 -580 6 -2 32 -1 55 2 l44 6 -1 280
c-1 154 -6 284 -10 288 -13 13 -78 16 -90 4z"/>
<path d="M9660 15763 c-13 -3 -33 -11 -44 -19 -11 -8 -30 -14 -41 -14 -28 0
-129 -55 -195 -106 -65 -50 -117 -104 -189 -196 -28 -37 -62 -70 -74 -74 -12
-4 -121 -8 -242 -8 -182 -1 -225 -4 -250 -17 -16 -9 -50 -20 -75 -24 -45 -6
-65 -15 -190 -75 -84 -41 -94 -47 -163 -98 -96 -72 -217 -204 -263 -287 -6
-11 -25 -46 -42 -78 -18 -31 -32 -63 -32 -70 0 -7 -8 -29 -19 -50 -10 -20 -22
-58 -26 -84 -3 -27 -16 -84 -27 -128 -22 -88 -63 -145 -105 -145 -13 0 -56 -9
-96 -19 -39 -11 -90 -24 -112 -29 -63 -16 -139 -44 -155 -57 -8 -7 -26 -16
-39 -20 -12 -4 -39 -18 -60 -31 -20 -13 -44 -30 -55 -37 -42 -28 -143 -111
-173 -143 -39 -41 -134 -168 -156 -209 -38 -72 -77 -161 -77 -178 0 -9 -10
-40 -21 -69 -20 -48 -22 -73 -23 -253 0 -187 1 -204 23 -265 17 -47 22 -75 18
-100 -8 -41 -56 -95 -117 -130 -24 -14 -48 -29 -54 -35 -6 -5 -27 -22 -48 -37
-20 -15 -52 -42 -70 -60 -46 -45 -168 -193 -168 -206 0 -5 -9 -20 -19 -34 -11
-13 -23 -36 -26 -51 -4 -14 -13 -31 -21 -38 -7 -6 -16 -27 -20 -48 -4 -20 -15
-53 -25 -73 -11 -21 -19 -48 -19 -60 0 -13 -7 -71 -17 -129 -16 -101 -16 -114
0 -225 10 -66 24 -139 33 -164 8 -25 19 -58 23 -75 4 -16 18 -48 29 -70 12
-22 22 -43 22 -46 0 -4 29 -50 64 -103 83 -124 92 -150 69 -202 -21 -45 -49
-90 -74 -119 -23 -26 -109 -195 -109 -215 -1 -8 -9 -33 -20 -55 -11 -22 -19
-51 -20 -65 0 -14 -7 -73 -17 -132 -16 -101 -16 -113 1 -225 9 -65 24 -138 32
-163 9 -25 19 -58 24 -75 20 -74 106 -217 188 -313 71 -82 257 -232 289 -232
6 0 33 -23 62 -51 47 -46 51 -54 51 -98 0 -26 -7 -72 -17 -102 -22 -74 -23
-245 0 -318 9 -30 17 -67 17 -83 0 -40 68 -208 115 -283 51 -83 76 -115 148
-191 43 -46 111 -104 150 -130 93 -62 233 -134 258 -134 11 0 37 -9 59 -20 22
-11 54 -20 71 -20 40 0 108 -32 139 -65 15 -16 28 -49 36 -92 28 -143 57 -235
96 -303 5 -8 15 -30 24 -48 40 -89 190 -256 288 -322 20 -14 43 -29 49 -35 7
-5 40 -23 72 -39 33 -15 76 -36 95 -46 19 -9 53 -20 75 -24 21 -4 53 -15 70
-24 25 -14 66 -16 250 -17 203 0 225 2 283 22 111 41 128 35 247 -86 50 -50
110 -103 135 -118 25 -16 54 -34 65 -41 11 -6 31 -17 45 -23 14 -6 41 -20 61
-30 20 -11 47 -19 60 -19 13 0 57 -9 98 -20 94 -25 158 -25 252 0 41 11 83 20
94 20 11 0 36 8 55 19 19 10 45 21 58 25 40 13 150 92 197 143 78 83 146 195
183 298 5 17 15 44 21 60 22 64 44 174 53 265 5 56 6 1564 3 3670 -6 3023 -9
3586 -21 3643 -8 38 -17 101 -20 140 -4 40 -13 84 -20 98 -7 15 -16 46 -20 70
-3 24 -15 59 -25 77 -11 18 -19 41 -19 51 0 10 -9 30 -20 44 -11 14 -20 29
-20 33 0 4 -21 38 -46 75 -62 92 -182 201 -237 214 -14 4 -31 13 -38 21 -6 7
-27 16 -48 20 -20 4 -49 14 -66 23 -24 13 -68 16 -225 17 -107 1 -206 0 -220
-3z m260 -281 c19 -24 20 -42 20 -533 0 -438 2 -510 15 -523 8 -8 15 -21 15
-29 0 -8 90 -105 201 -217 243 -245 259 -267 259 -366 0 -90 -16 -170 -36
-178 -16 -6 -34 30 -34 69 0 27 -15 46 -131 166 -47 49 -108 114 -136 144 -28
30 -56 55 -62 55 -6 0 -11 7 -11 15 0 9 -7 18 -16 22 -9 3 -50 40 -91 82 -102
105 -103 106 -103 123 0 8 -9 26 -19 40 -18 23 -19 49 -22 571 -3 513 -2 548
15 566 33 36 105 33 136 -7z m307 -107 c63 -65 83 -194 83 -548 l0 -278 48
-62 c27 -34 54 -72 60 -84 15 -28 15 -155 0 -188 -14 -31 -44 -33 -54 -2 -4
12 -53 69 -109 125 -76 77 -105 113 -109 137 -4 18 -13 38 -21 45 -13 11 -15
77 -15 450 0 341 3 439 13 443 25 11 73 -7 104 -38z m-639 23 c9 -9 12 -149
12 -570 0 -458 2 -558 14 -565 7 -4 18 -18 24 -30 7 -12 113 -123 236 -248
123 -124 227 -232 230 -240 3 -8 12 -15 21 -15 8 0 15 -4 15 -9 0 -12 109
-121 121 -121 5 0 9 -7 9 -16 0 -9 9 -18 20 -21 10 -3 22 -14 25 -24 4 -10 12
-19 19 -19 7 0 18 -11 24 -25 6 -14 16 -25 22 -25 5 0 10 -5 10 -11 0 -6 9
-22 20 -36 15 -20 20 -41 20 -90 0 -35 -5 -73 -10 -84 -14 -25 -46 -24 -60 1
-6 11 -17 20 -25 20 -8 0 -15 4 -15 9 0 5 -188 198 -417 428 -230 231 -431
438 -446 460 l-28 40 3 540 c3 603 -2 558 77 631 37 34 59 40 79 20z m-711
-348 c7 -14 13 -64 13 -115 1 -59 6 -99 15 -115 8 -14 14 -37 15 -51 0 -15 10
-39 21 -54 27 -33 38 -121 25 -188 -7 -36 -16 -53 -35 -64 -14 -9 -38 -24 -53
-34 -41 -28 -103 -25 -152 9 -23 15 -43 31 -44 35 -2 4 -15 21 -28 36 -31 38
-33 111 -4 148 11 14 20 31 20 38 0 6 9 20 20 30 18 16 20 31 20 156 0 75 3
145 6 154 10 25 63 45 109 42 31 -1 42 -7 52 -27z m-341 -77 c3 -10 6 -576 7
-1259 l2 -1241 37 -45 c21 -25 44 -65 52 -88 13 -38 13 -50 0 -99 -8 -31 -19
-58 -24 -59 -14 -5 -37 -29 -42 -44 -3 -8 -32 -12 -89 -12 -72 -1 -88 2 -112
21 -52 40 -77 89 -77 147 0 53 4 62 65 127 13 14 15 171 15 1225 0 739 4 1222
10 1242 14 51 73 102 117 102 25 0 36 -5 39 -17z m-335 -333 c4 -14 7 -111 8
-215 1 -178 2 -192 21 -208 11 -9 20 -27 20 -40 0 -12 9 -30 20 -40 16 -13 20
-29 20 -73 0 -49 -4 -61 -35 -99 -31 -37 -43 -44 -83 -49 -26 -3 -68 -8 -95
-12 -55 -7 -77 5 -77 44 0 24 1 25 65 20 74 -6 81 3 45 57 -11 17 -20 43 -20
58 0 15 -7 44 -16 65 -21 49 -29 194 -14 252 6 25 16 68 22 95 5 28 16 61 23
75 8 14 22 42 31 63 20 45 54 48 65 7z m1038 -419 c11 -11 29 -24 40 -31 12
-6 21 -17 21 -25 0 -8 8 -20 19 -27 11 -8 22 -32 26 -58 5 -29 20 -61 43 -90
37 -46 317 -332 753 -769 154 -154 254 -262 268 -289 26 -52 30 -166 7 -198
-13 -17 -17 -17 -37 -6 -20 13 -21 12 -14 -5 26 -60 8 -132 -47 -187 -30 -30
-35 -31 -112 -31 -79 0 -82 1 -114 34 -17 19 -32 39 -32 46 0 7 -9 20 -20 30
-19 18 -20 17 -20 -3 0 -12 -19 -37 -47 -61 -46 -39 -51 -41 -116 -41 l-68 0
-54 57 c-54 55 -55 58 -55 114 0 39 5 63 15 73 9 8 21 30 27 48 6 18 18 41 27
52 14 15 16 50 16 233 0 190 -2 216 -17 227 -9 7 -20 25 -24 42 -4 16 -14 36
-23 45 -9 10 -31 35 -50 58 -19 23 -38 41 -42 41 -5 0 -9 -301 -9 -668 0 -656
0 -669 20 -687 11 -10 20 -25 20 -33 0 -15 28 -52 39 -52 3 0 4 24 3 54 -3 44
0 58 16 74 11 11 25 29 30 39 15 28 118 76 147 69 28 -7 78 -40 118 -77 25
-25 27 -32 27 -111 0 -72 -3 -88 -20 -103 -11 -10 -20 -24 -20 -30 0 -7 -9
-24 -20 -38 -24 -30 -26 -70 -5 -87 8 -7 15 -18 15 -25 0 -17 54 -72 78 -79
11 -4 23 -13 26 -21 3 -8 13 -15 21 -15 15 0 16 21 13 194 -3 186 -4 196 -25
218 -13 14 -23 31 -23 40 0 8 -9 23 -20 33 -11 10 -20 31 -20 47 0 37 44 114
84 150 28 24 39 27 108 28 66 0 79 -3 88 -19 5 -11 18 -22 28 -25 17 -6 52
-96 52 -134 0 -31 -31 -105 -48 -118 -15 -11 -17 -43 -20 -298 l-3 -285 42
-43 c66 -67 79 -95 79 -165 0 -60 -15 -93 -42 -93 -10 0 -147 112 -220 180
-21 19 -48 43 -60 52 -41 31 -146 117 -171 140 -61 57 -107 98 -112 98 -3 0
-13 8 -24 18 -10 9 -40 35 -66 57 -27 22 -61 52 -78 68 -16 15 -33 27 -38 27
-4 0 -13 9 -19 20 -6 11 -14 20 -19 20 -14 0 -111 92 -111 105 0 7 -9 20 -20
30 -20 18 -20 31 -20 807 0 775 0 788 -20 808 -11 11 -20 28 -20 38 0 10 -31
48 -70 85 -57 55 -75 67 -102 67 -18 0 -46 9 -63 20 -16 11 -41 20 -55 20 -15
0 -38 14 -60 36 -35 36 -35 37 -35 124 0 80 2 91 24 114 14 14 29 26 34 26 5
0 20 9 34 20 35 27 115 28 142 1z m-376 -176 c4 -8 14 -15 22 -15 25 0 73 -54
86 -98 10 -35 10 -55 0 -105 -7 -33 -19 -66 -26 -71 -8 -6 -22 -31 -32 -56
-15 -40 -18 -95 -23 -480 -7 -616 4 -1321 22 -1382 11 -36 30 -63 81 -113 37
-36 71 -65 77 -65 5 0 13 -6 17 -14 4 -7 60 -55 123 -106 63 -51 122 -101 130
-110 8 -9 65 -56 125 -105 61 -49 117 -96 125 -105 8 -9 62 -54 118 -100 57
-45 116 -94 131 -109 50 -48 113 -101 118 -101 6 0 103 -80 139 -115 35 -33
105 -92 173 -145 68 -53 102 -86 139 -134 17 -23 22 -43 22 -89 0 -103 -30
-123 -93 -62 -20 19 -41 35 -46 35 -6 0 -15 9 -21 20 -6 11 -16 20 -22 20 -6
0 -21 10 -33 23 -13 12 -38 34 -57 49 -31 25 -102 88 -139 123 -9 8 -19 15
-24 15 -4 0 -18 10 -30 23 -13 12 -38 34 -57 49 -18 15 -52 44 -75 65 -24 21
-54 47 -68 58 -14 11 -36 29 -49 40 -13 11 -38 31 -56 45 -17 14 -52 43 -76
65 -24 22 -55 49 -69 60 -13 11 -36 29 -49 40 -13 11 -38 31 -55 45 -18 14
-43 34 -55 45 -12 11 -44 38 -70 60 -26 22 -55 47 -64 56 -10 9 -25 20 -34 25
-17 9 -75 58 -154 129 -24 22 -54 48 -66 57 -133 100 -203 168 -218 212 -6 19
-16 36 -23 39 -9 3 -13 234 -15 977 -2 836 -4 976 -17 990 -32 35 -65 112 -65
151 0 50 65 149 98 149 7 0 26 9 40 21 30 23 80 20 95 -6z m-1043 -40 c16 -9
32 -25 35 -38 3 -12 6 -675 8 -1474 l2 -1452 23 -21 c12 -11 22 -27 22 -34 0
-7 9 -25 20 -39 29 -37 27 -106 -6 -154 -41 -62 -95 -93 -159 -93 -30 0 -55 4
-55 10 0 5 -17 18 -37 27 -54 26 -64 53 -61 155 3 73 6 89 23 102 17 12 20 31
26 158 4 78 12 253 19 388 9 186 9 458 1 1135 -15 1233 -15 1265 -1 1296 22
47 85 62 140 34z m-341 -79 c8 -10 13 -268 17 -947 5 -742 8 -940 19 -964 7
-16 18 -41 24 -55 11 -26 24 -48 53 -92 23 -35 23 -69 -2 -101 -11 -14 -20
-30 -20 -36 0 -17 -49 -60 -75 -67 -13 -3 -29 -12 -36 -20 -17 -20 -38 -17
-99 14 -70 35 -118 100 -119 158 -1 25 5 46 14 54 8 7 17 28 21 47 4 20 15 44
25 54 18 18 19 55 19 933 0 531 4 925 9 939 11 28 59 82 81 90 28 10 57 7 69
-7z m1771 -174 c8 -10 23 -21 33 -25 9 -3 17 -13 17 -20 0 -8 9 -22 20 -32 15
-14 20 -31 20 -70 0 -39 -5 -56 -20 -70 -11 -10 -20 -28 -20 -40 0 -12 -9 -30
-20 -40 -20 -18 -20 -31 -20 -753 l0 -735 49 -48 c28 -27 55 -49 60 -49 6 0
11 -4 11 -8 0 -5 37 -38 83 -74 45 -36 98 -81 119 -99 20 -19 54 -51 77 -71
22 -21 45 -38 51 -38 5 0 14 -9 20 -20 6 -11 16 -20 23 -20 7 0 35 -22 63 -48
28 -26 73 -65 98 -87 26 -22 55 -47 64 -55 9 -9 55 -47 102 -85 47 -38 95 -79
107 -90 22 -21 23 -22 119 -101 99 -80 117 -107 122 -175 2 -32 2 -69 -2 -83
-8 -32 -42 -43 -64 -22 -9 9 -46 40 -82 69 -76 62 -135 113 -166 145 -11 12
-26 22 -32 22 -6 0 -16 9 -22 20 -6 11 -16 20 -23 20 -7 0 -35 22 -63 48 -45
41 -71 64 -168 147 -13 11 -36 29 -50 40 -15 11 -39 31 -55 45 -28 25 -118
102 -191 163 -127 106 -156 131 -163 143 -4 8 -13 14 -20 14 -7 0 -18 9 -25
20 -7 11 -16 20 -20 20 -10 0 -77 56 -144 121 -35 34 -48 54 -48 75 -1 16 -7
43 -14 59 -10 24 -12 126 -8 480 2 248 -1 573 -6 724 -9 253 -12 276 -31 302
-12 15 -21 33 -21 38 0 6 -7 31 -16 57 -12 34 -13 53 -6 68 6 12 14 32 18 46
8 30 67 87 97 94 46 10 132 -3 147 -22z m-1056 -259 c23 -16 43 -32 45 -36 1
-5 14 -20 27 -34 31 -34 34 -127 5 -164 -10 -13 -21 -34 -25 -46 -4 -11 -13
-27 -21 -33 -22 -18 -23 -1705 -1 -1717 7 -4 18 -18 25 -30 6 -13 18 -23 26
-23 8 0 15 -4 15 -8 0 -5 36 -37 80 -72 44 -36 82 -70 84 -77 3 -7 12 -13 21
-13 8 0 15 -4 15 -8 0 -5 37 -38 83 -74 45 -36 100 -82 122 -101 59 -53 60
-54 154 -130 47 -38 96 -79 108 -91 35 -34 102 -91 183 -155 41 -32 99 -81
128 -108 29 -26 63 -56 75 -65 51 -39 145 -117 184 -154 24 -21 54 -48 69 -59
14 -11 34 -27 44 -36 10 -9 24 -21 33 -25 16 -10 138 -117 172 -151 12 -13 26
-23 31 -23 5 0 17 -8 26 -17 9 -10 31 -29 49 -43 31 -24 42 -34 128 -112 22
-21 45 -38 51 -38 5 0 14 -9 20 -20 6 -11 17 -20 25 -20 8 0 15 -4 15 -8 0 -5
30 -33 67 -63 153 -124 173 -151 173 -244 0 -48 -5 -78 -16 -93 -19 -28 -41
-28 -50 0 -6 20 -41 57 -54 58 -3 0 -4 -222 -2 -492 l3 -493 23 -35 c49 -74
56 -90 56 -123 0 -19 -7 -40 -15 -47 -8 -7 -15 -18 -15 -25 0 -7 -16 -29 -36
-49 -35 -35 -38 -36 -114 -36 -74 0 -80 2 -114 32 -20 17 -36 36 -36 41 0 5
-9 20 -20 34 -25 32 -25 70 0 108 11 17 20 37 20 46 0 9 10 29 23 45 l22 29 0
563 c0 499 -2 565 -16 575 -8 7 -18 19 -21 28 -6 16 -110 109 -122 109 -3 0
-6 -160 -6 -356 0 -341 1 -357 20 -381 11 -14 20 -33 20 -43 0 -9 9 -25 20
-35 17 -15 20 -31 20 -100 0 -75 -2 -84 -28 -113 -16 -18 -33 -32 -38 -32 -5
0 -17 -9 -27 -20 -26 -31 -115 -28 -153 5 -36 31 -38 33 -69 69 -36 41 -36
127 0 176 14 19 25 38 25 43 0 6 8 16 18 23 16 11 17 47 20 446 l3 434 -26 28
c-14 15 -25 34 -25 42 0 7 -4 14 -8 14 -4 0 -30 20 -57 45 l-50 45 -3 -692
c-2 -656 -1 -693 16 -712 10 -12 23 -33 30 -48 6 -16 16 -28 22 -28 6 0 10
-30 10 -74 l0 -74 -48 -51 -48 -51 -78 0 c-76 0 -77 0 -112 38 -20 20 -40 47
-45 60 -14 35 -11 124 6 152 8 14 20 36 27 50 7 14 21 33 31 42 16 17 17 67
17 770 l0 751 -82 78 -83 78 -5 -1427 c-5 -1407 -5 -1428 -25 -1459 -23 -36
-87 -83 -114 -83 -9 0 -25 6 -34 13 -16 11 -17 114 -21 1517 -2 828 -7 1528
-11 1556 -6 44 -14 59 -55 100 -70 71 -85 84 -98 84 -16 0 -15 -10 3 -53 8
-20 15 -50 15 -66 0 -18 9 -38 23 -51 19 -18 22 -31 22 -100 0 -82 1 -80 -57
-138 -48 -48 -56 -52 -96 -52 -54 0 -105 31 -157 96 -20 26 -25 43 -25 87 0
34 5 59 13 64 6 4 24 26 40 49 26 39 27 44 27 184 l0 143 -30 26 c-16 14 -41
35 -55 46 -15 11 -36 30 -47 42 -12 12 -25 20 -29 17 -5 -3 -9 -264 -9 -582 0
-566 0 -577 -20 -591 -11 -7 -20 -18 -20 -23 0 -10 -54 -68 -64 -68 -3 0 -16
-10 -29 -22 -59 -58 -213 -188 -221 -188 -3 0 -16 -10 -29 -22 -67 -63 -118
-107 -220 -190 -61 -50 -116 -96 -122 -103 -5 -7 -39 -35 -75 -64 -124 -99
-144 -116 -179 -149 -20 -19 -73 -63 -118 -99 -46 -37 -83 -70 -83 -75 0 -4
-5 -8 -12 -8 -12 0 -32 -17 -80 -67 -13 -14 -33 -23 -52 -23 -37 0 -44 5 -74
48 -18 25 -22 40 -17 64 7 31 65 98 85 98 5 0 15 9 22 20 7 11 17 20 22 20 5
0 18 10 30 23 12 12 63 56 114 96 50 41 92 79 92 83 0 4 6 8 13 8 7 0 23 10
34 23 12 12 40 39 64 59 24 20 59 49 77 65 18 15 44 37 58 48 52 40 76 61 112
95 34 32 133 114 190 158 13 9 40 33 60 52 70 66 209 180 221 180 6 0 11 6 11
13 0 8 9 22 20 32 20 18 20 31 20 637 0 367 -4 618 -9 618 -9 0 -23 11 -104
82 -23 21 -44 38 -47 38 -3 0 -5 -280 -5 -623 l0 -622 -28 -40 c-37 -52 -63
-80 -127 -135 -58 -50 -94 -81 -126 -111 -12 -10 -27 -19 -33 -19 -5 0 -15 -9
-21 -20 -6 -11 -16 -20 -22 -20 -6 0 -21 -10 -32 -22 -12 -13 -46 -43 -75 -68
-29 -25 -60 -53 -69 -62 -9 -10 -22 -18 -29 -18 -7 0 -17 -9 -23 -20 -6 -11
-16 -20 -22 -20 -6 0 -20 -10 -32 -22 -12 -13 -46 -43 -75 -68 -88 -74 -105
-90 -122 -105 -9 -8 -19 -15 -24 -15 -4 0 -17 -9 -29 -21 -122 -120 -199 -179
-233 -179 -36 0 -43 13 -43 79 0 35 8 59 31 97 32 50 83 104 100 104 5 0 14 9
21 20 7 11 17 20 22 20 4 0 25 17 45 38 34 34 129 116 189 160 12 9 41 35 65
56 60 56 203 176 210 176 3 0 23 17 45 38 55 51 132 117 181 155 23 17 43 42
46 58 4 15 13 33 21 40 21 18 21 3077 0 3085 -8 3 -18 20 -22 37 -3 18 -15 40
-25 50 -16 15 -19 32 -19 98 0 72 3 83 28 115 15 18 32 34 38 34 6 0 19 9 29
20 28 31 98 27 149 -7z m-1016 -141 c54 -43 65 -70 60 -154 -3 -54 -8 -72 -26
-88 -12 -11 -22 -29 -22 -38 0 -10 -9 -25 -20 -35 -17 -14 -20 -29 -20 -101 0
-64 -4 -87 -16 -97 -19 -16 -47 -1 -53 27 -1 10 -9 26 -17 35 -13 14 -39 82
-65 168 -6 18 -9 89 -7 156 2 103 6 126 22 143 36 41 102 35 164 -16z m-46
-729 c17 -15 18 -73 18 -1440 0 -1110 3 -1423 12 -1423 7 0 21 9 33 19 11 11
44 41 72 68 l53 48 0 676 c0 663 0 676 -20 694 -11 10 -20 26 -20 35 0 10 -9
29 -20 43 -43 55 -19 135 62 206 32 28 42 31 102 31 52 0 70 -4 85 -19 11 -11
29 -24 40 -30 11 -7 23 -26 27 -46 3 -19 12 -39 20 -46 19 -16 18 -32 -6 -76
-11 -21 -20 -43 -20 -50 0 -7 -6 -16 -13 -20 -7 -4 -23 -29 -35 -54 -22 -45
-22 -50 -22 -617 l0 -573 30 16 c17 9 30 19 30 24 0 5 11 19 25 32 19 19 25
35 26 74 2 92 16 110 119 155 31 14 86 4 118 -21 14 -10 30 -19 36 -19 6 -1
23 -20 39 -44 41 -66 38 -135 -8 -198 -26 -35 -42 -48 -60 -48 -14 0 -33 -9
-42 -20 -12 -14 -30 -20 -59 -20 -27 0 -49 -7 -65 -20 -13 -12 -51 -42 -84
-68 -69 -53 -84 -66 -125 -104 -73 -67 -169 -136 -210 -151 -57 -21 -106 -21
-195 2 -53 14 -73 24 -82 42 -17 32 -14 2912 3 2929 8 8 66 24 108 29 5 1 18
-6 28 -16z m-334 -135 c9 -9 12 -162 12 -625 0 -677 4 -636 -63 -614 -39 13
-80 53 -99 96 -18 42 -24 897 -8 997 13 76 43 121 95 144 38 17 48 17 63 2z
m-250 -316 c4 -25 -23 -41 -40 -24 -7 7 -6 17 2 32 14 26 34 22 38 -8z m-48
-62 c0 -16 -5 -30 -10 -30 -14 0 -24 26 -16 45 10 26 26 16 26 -15z m2034
-357 c38 -8 96 -68 96 -101 0 -13 9 -35 20 -49 11 -14 20 -33 20 -42 0 -18 93
-111 110 -111 5 0 10 -4 10 -8 0 -5 38 -39 84 -75 46 -37 107 -90 136 -117 29
-28 56 -50 61 -50 4 0 13 -9 19 -20 6 -11 17 -20 25 -20 8 0 18 -6 22 -13 4
-7 19 -20 33 -29 14 -8 51 -41 84 -72 32 -31 61 -56 63 -56 3 0 16 -10 28 -22
32 -31 55 -51 76 -63 9 -5 47 -37 84 -70 97 -86 110 -98 139 -120 15 -11 34
-27 44 -35 9 -9 46 -40 82 -70 36 -30 71 -63 78 -72 7 -10 20 -18 28 -18 8 0
14 -4 14 -8 0 -5 38 -39 85 -76 47 -37 98 -81 114 -97 16 -16 34 -29 40 -29 6
0 11 -4 11 -8 0 -5 37 -38 83 -74 179 -143 207 -178 207 -266 0 -95 -25 -125
-69 -84 -33 30 -104 90 -171 144 -36 28 -74 61 -85 72 -12 12 -40 37 -64 56
-24 19 -51 42 -61 51 -10 9 -25 21 -33 25 -17 10 -139 117 -172 152 -12 12
-27 22 -33 22 -6 0 -16 9 -22 20 -6 11 -16 20 -23 20 -7 0 -20 8 -29 18 -9 9
-40 37 -69 62 -29 25 -63 55 -75 68 -11 12 -26 22 -32 22 -6 0 -16 9 -22 20
-6 11 -16 20 -22 20 -6 0 -21 10 -33 23 -12 12 -44 40 -71 62 -26 22 -60 51
-75 65 -36 32 -44 39 -148 123 -47 38 -96 79 -109 91 -12 11 -30 28 -40 37 -9
9 -57 49 -107 89 -49 40 -98 80 -107 89 -29 28 -101 90 -158 135 -52 41 -60
44 -130 48 -46 2 -75 8 -78 16 -2 7 -17 19 -33 27 -16 9 -29 21 -29 28 0 7 -9
20 -20 30 -16 13 -20 29 -20 77 0 53 4 66 36 110 27 38 42 50 62 51 15 0 36 4
47 9 11 5 31 7 44 4 13 -3 37 -8 55 -11z m-1736 -725 c17 -17 17 -1219 0
-1236 -20 -20 -52 -14 -95 18 -34 25 -43 40 -52 79 -14 64 -16 995 -2 1039 12
39 49 76 94 97 41 17 41 17 55 3z m2066 -919 c46 -13 83 -48 114 -107 24 -46
28 -77 12 -87 -6 -4 -17 -21 -25 -38 -9 -18 -22 -43 -29 -57 -46 -83 -44 -27
-51 -1286 -5 -830 -11 -1193 -18 -1203 -20 -24 -58 -32 -93 -21 -68 23 -64
-54 -64 1092 0 741 -3 1038 -11 1038 -17 0 -119 -109 -119 -127 0 -9 -8 -25
-17 -36 -17 -18 -18 -77 -18 -949 0 -909 0 -930 -19 -944 -11 -8 -25 -14 -31
-14 -19 0 -76 43 -99 73 -21 28 -21 34 -23 873 -2 464 -5 844 -8 844 -5 0 -58
-45 -101 -86 -12 -12 -29 -24 -38 -27 -14 -6 -16 -71 -17 -664 -1 -362 -4
-669 -8 -683 -10 -36 -48 -39 -61 -5 -6 15 -19 39 -30 53 -11 13 -20 34 -20
46 -1 11 -9 39 -20 61 -16 34 -19 63 -20 183 0 105 4 153 14 175 20 44 36 108
30 119 -3 4 -11 8 -19 8 -8 0 -21 10 -29 22 -14 19 -16 62 -16 270 0 137 -2
248 -3 248 -4 0 -70 -56 -126 -108 l-36 -33 -5 -189 c-5 -182 -6 -189 -29
-214 -36 -38 -87 -36 -134 7 l-37 33 0 91 c0 84 -2 92 -17 86 -25 -9 -111
-100 -115 -121 -7 -38 -96 -21 -154 30 -19 17 -34 38 -34 48 0 19 68 92 110
119 14 8 29 21 33 28 4 7 14 13 22 13 8 0 19 9 25 20 6 11 15 20 20 20 5 0 27
17 48 38 62 60 149 132 161 132 6 0 15 9 21 20 6 11 15 20 21 20 6 0 30 19 54
43 25 23 52 49 62 57 27 23 95 79 121 98 22 17 102 87 132 116 8 8 44 37 80
65 69 54 137 112 173 147 12 12 61 53 108 91 182 147 179 144 179 208 0 44 -4
56 -20 65 -11 6 -20 19 -20 29 0 10 -9 26 -20 36 -32 29 -27 103 11 159 34 51
40 57 89 72 46 16 67 16 114 3z m1088 -2146 c16 -15 28 -31 28 -36 0 -5 11
-22 25 -39 l25 -29 19 33 c22 36 22 36 68 74 27 21 43 26 93 25 50 0 66 -4 95
-28 65 -50 107 -173 70 -203 -8 -7 -15 -18 -15 -26 0 -7 -10 -20 -22 -29 -22
-15 -23 -23 -29 -218 -6 -193 -18 -280 -48 -335 -17 -31 -66 -69 -93 -74 -57
-10 -57 -9 -60 311 -3 292 -3 294 -25 309 -13 8 -23 20 -23 27 0 7 -7 19 -17
26 -13 11 -17 12 -21 1 -2 -7 -15 -25 -28 -39 -13 -14 -24 -31 -24 -38 0 -7
-7 -18 -15 -25 -13 -11 -15 -57 -15 -300 0 -176 -4 -299 -11 -317 -11 -34 -47
-47 -100 -36 -60 12 -61 21 -60 350 l2 298 -26 34 c-14 19 -25 40 -25 47 0 6
-7 17 -16 25 -13 10 -17 10 -24 -2 -23 -36 -37 -55 -57 -76 -22 -23 -23 -29
-23 -253 0 -125 -3 -235 -6 -244 -16 -42 -82 1 -134 88 -21 35 -24 54 -28 199
-4 139 -7 162 -23 178 -11 11 -19 26 -19 34 0 8 -10 24 -22 35 -18 17 -23 34
-26 91 -4 63 -2 73 23 109 15 22 35 42 45 45 10 3 21 12 24 20 8 22 141 21
150 0 3 -8 17 -20 31 -25 14 -5 25 -16 25 -24 0 -9 9 -20 20 -26 11 -6 20 -21
20 -35 0 -56 32 -27 45 43 4 17 11 32 15 32 5 0 19 11 32 24 42 44 134 43 180
-1z"/>
<path d="M9940 13006 c0 -115 3 -146 15 -156 8 -7 15 -18 15 -24 0 -7 11 -23
24 -35 14 -13 26 -34 28 -48 4 -35 21 -33 33 4 6 17 19 41 30 53 17 19 20 37
20 116 l0 93 -74 71 c-40 38 -78 70 -82 70 -5 0 -9 -65 -9 -144z"/>
<path d="M4050 11370 c-22 -14 -28 -371 -7 -389 11 -9 181 -12 696 -12 375 0
686 3 691 6 15 9 13 378 -2 393 -15 15 -1354 17 -1378 2z"/>
<path d="M16593 11372 c-15 -9 -20 -379 -6 -393 15 -15 1362 -13 1380 3 22 18
15 374 -7 388 -18 12 -1349 13 -1367 2z"/>
<path d="M14942 7442 c-78 -76 -142 -145 -142 -153 0 -9 55 -69 123 -134 67
-66 245 -238 396 -384 430 -418 444 -431 460 -431 19 1 291 261 291 278 0 15
-40 54 -505 501 -66 63 -192 185 -280 271 -88 85 -170 163 -181 172 -20 17
-24 15 -162 -120z"/>
<path d="M6917 7438 c-257 -251 -790 -765 -863 -833 -30 -28 -54 -56 -54 -62
0 -6 53 -63 118 -126 121 -119 164 -157 179 -157 5 0 49 39 98 87 796 768 885
855 885 864 0 8 -266 271 -285 282 -9 5 -35 -13 -78 -55z"/>
<path d="M9275 6103 c-34 -9 -81 -50 -99 -88 -16 -34 -16 -39 2 -113 11 -42
23 -108 27 -145 8 -84 34 -131 86 -157 37 -20 70 -20 1715 -20 l1677 0 43 21
c36 19 46 30 64 78 11 31 25 93 30 138 5 46 14 101 21 123 10 34 10 46 -6 80
-11 24 -33 50 -54 63 l-36 22 -1725 1 c-949 1 -1734 0 -1745 -3z"/>
<path d="M10145 5343 c-27 -2 -130 -10 -227 -18 -97 -8 -211 -15 -253 -15 -88
0 -131 -15 -168 -59 -30 -36 -34 -76 -17 -158 6 -26 14 -100 18 -164 9 -130
21 -155 95 -201 22 -12 46 -28 55 -33 10 -6 31 -19 47 -29 30 -20 207 -132
236 -151 9 -5 36 -23 60 -40 24 -16 51 -34 61 -40 102 -63 150 -104 169 -145
47 -96 30 -204 -42 -264 -28 -24 -38 -26 -128 -26 -94 0 -99 1 -138 31 -37 28
-43 40 -63 116 -31 119 -56 146 -141 151 -54 3 -68 1 -91 -18 -41 -32 -48 -76
-40 -237 9 -160 17 -177 90 -194 53 -12 729 -11 774 1 25 7 43 22 57 44 19 30
21 49 21 209 0 209 -10 270 -53 310 -28 26 -118 87 -407 275 -63 41 -133 87
-155 101 -80 53 -114 104 -122 186 -5 44 -1 59 19 93 46 77 67 87 195 87 109
0 112 -1 141 -28 31 -29 62 -94 81 -164 9 -34 20 -47 55 -68 70 -41 139 -31
196 30 25 26 25 29 23 176 -3 170 -11 192 -88 229 -41 20 -107 23 -260 13z"/>
<path d="M10882 5325 c-16 -13 -32 -39 -36 -56 -3 -17 -3 -330 1 -696 l6 -664
28 -32 c27 -31 31 -32 102 -32 84 0 96 7 126 69 21 41 21 57 21 698 l0 656
-27 34 c-39 47 -41 48 -120 48 -62 0 -76 -3 -101 -25z"/>
<path d="M11528 5312 l-43 -41 -3 -123 c-1 -68 -9 -285 -17 -483 -8 -198 -15
-446 -15 -550 0 -186 1 -191 25 -227 20 -30 33 -38 69 -43 68 -11 122 2 149
35 23 27 24 35 30 259 7 211 9 235 30 277 33 69 88 94 207 94 97 0 145 -15
185 -60 19 -21 20 -34 17 -279 l-3 -256 30 -35 c29 -34 31 -35 105 -35 72 0
77 2 108 32 l32 32 7 193 c4 106 12 215 18 241 6 26 16 121 21 210 5 89 16
197 25 240 8 43 15 105 15 137 0 33 5 104 11 159 12 113 5 153 -37 192 -20 19
-38 24 -94 27 -68 4 -69 4 -111 -35 l-42 -40 -8 -126 c-13 -197 -34 -314 -65
-351 -41 -49 -86 -64 -191 -65 -110 -1 -166 19 -201 72 -23 35 -24 38 -20 276
l3 240 -32 33 c-28 28 -40 33 -97 36 -64 4 -65 4 -108 -36z"/>
<path d="M9620 3542 l-35 -17 1 -90 c1 -55 7 -108 17 -138 10 -26 17 -61 17
-77 0 -20 10 -39 33 -59 l32 -31 1322 0 1323 0 30 28 c26 22 33 39 40 92 6 36
17 87 25 114 16 52 20 133 7 153 -4 7 -24 19 -45 28 -32 13 -193 15 -1384 15
-1256 -1 -1350 -2 -1383 -18z"/>
<path d="M10203 2852 c-10 -6 -9 -26 2 -92 28 -156 103 -267 240 -355 57 -37
133 -72 171 -80 21 -3 51 -13 66 -21 16 -8 90 -19 177 -26 248 -19 481 9 603
73 20 10 41 19 47 19 15 0 89 52 143 100 43 37 108 121 108 138 0 4 9 25 21
46 19 36 43 181 33 198 -7 10 -1595 10 -1611 0z"/>
</g>
</svg>
