<?xml version="1.0" standalone="no"?>
<!DOCTYPE svg PUBLIC "-//W3C//DTD SVG 20010904//EN"
 "http://www.w3.org/TR/2001/REC-SVG-20010904/DTD/svg10.dtd">
<svg version="1.0" xmlns="http://www.w3.org/2000/svg"
 width="1500.000000pt" height="400.000000pt" viewBox="0 0 1500.000000 400.000000"
 preserveAspectRatio="xMidYMid meet">

<g transform="translate(0.000000,400.000000) scale(0.100000,-0.100000)"
fill="#000000" stroke="none">
<path d="M7920 2070 l0 -1110 35 0 35 0 0 1110 0 1110 -35 0 -35 0 0 -1110z"/>
<path d="M3190 2925 l0 -244 77 -3 77 -3 168 -585 c92 -322 170 -597 173 -613
6 -26 5 -27 -34 -27 l-41 0 0 -250 0 -250 505 0 505 0 0 250 0 250 -45 0 c-25
0 -45 3 -45 8 -1 4 77 280 172 615 l172 607 83 0 83 0 0 245 0 245 -390 0
-390 0 0 -245 0 -245 25 0 c15 0 25 -6 25 -15 0 -13 -183 -681 -196 -715 -3
-8 -54 152 -114 355 l-108 370 34 3 34 3 0 245 0 244 -385 0 -385 0 0 -245z
m750 5 l0 -230 -36 0 c-25 0 -35 -4 -32 -12 2 -7 56 -192 118 -410 63 -219
117 -398 120 -398 5 0 231 796 230 813 0 4 -16 7 -35 7 l-35 0 2 228 3 227
375 0 375 0 3 -227 2 -228 -83 0 -83 0 -181 -632 -180 -633 51 -5 51 -5 3
-228 2 -227 -495 0 -495 0 2 227 3 228 46 3 45 3 -180 632 -181 632 -72 3 -73
3 0 229 0 230 365 0 365 0 0 -230z"/>
<path d="M3290 2925 l0 -125 65 0 c36 0 65 -2 65 -4 0 -2 20 -73 44 -157 186
-650 366 -1290 366 -1303 0 -13 -12 -16 -60 -16 l-60 0 0 -125 0 -125 403 2
402 3 3 122 3 122 -68 3 c-38 2 -67 7 -67 13 1 6 95 337 209 738 l208 727 68
0 69 0 0 125 0 125 -285 0 -285 0 0 -125 0 -125 51 0 c36 0 49 -4 46 -12 -2
-7 -82 -289 -178 -625 -96 -337 -176 -613 -179 -613 -5 0 -348 1175 -358 1228
-4 20 -1 22 47 22 l51 0 0 125 0 125 -280 0 -280 0 0 -125z"/>
<path d="M5150 2925 l0 -245 60 0 60 0 0 -615 0 -615 -60 0 -60 0 0 -250 0
-250 375 0 375 0 0 250 0 250 -55 0 -55 0 0 615 0 615 55 0 55 0 0 245 0 245
-375 0 -375 0 0 -245z m738 3 l2 -228 -60 0 -60 0 0 -635 0 -635 60 0 60 0 0
-230 0 -230 -360 0 -360 0 0 230 0 230 60 0 60 0 -2 633 -3 632 -57 3 -58 3 0
230 0 229 358 -2 357 -3 3 -227z"/>
<path d="M5260 2925 l0 -125 55 0 55 0 0 -740 0 -740 -55 0 -55 0 0 -125 0
-125 270 0 270 0 0 125 0 124 -57 3 -58 3 0 735 0 735 58 3 57 3 0 124 0 125
-270 0 -270 0 0 -125z"/>
<path d="M6042 2858 l3 -313 213 -3 212 -2 0 70 0 71 58 -3 57 -3 0 -610 0
-610 -57 -3 -58 -3 0 -249 0 -250 375 0 375 0 0 250 0 250 -55 0 -55 0 0 615
0 615 60 0 60 0 0 -70 0 -70 210 0 210 0 0 315 0 315 -805 0 -805 0 2 -312z
m1589 298 c2 -2 3 -135 1 -295 l-3 -291 -194 0 -195 0 0 65 0 65 -75 0 -75 0
0 -635 0 -635 60 0 60 0 0 -230 0 -230 -360 0 -360 0 0 230 0 230 55 0 55 0 0
635 0 635 -75 0 -75 0 0 -65 0 -65 -195 0 -195 0 0 295 0 295 783 0 c431 0
786 -2 788 -4z"/>
<path d="M6150 2860 l0 -190 105 0 105 0 0 65 0 65 165 0 165 0 -2 -737 -3
-738 -52 -3 -53 -3 0 -125 0 -124 270 0 270 0 0 125 0 124 -57 3 -58 3 0 735
0 735 163 3 162 2 0 -65 0 -65 110 0 110 0 0 190 0 190 -700 0 -700 0 0 -190z"/>
<path d="M8290 3166 c0 -4 32 -106 71 -229 122 -385 106 -347 142 -347 l32 0
89 278 c49 152 91 283 93 290 4 10 -4 13 -27 10 l-32 -3 -58 -188 c-32 -103
-66 -217 -76 -253 -9 -35 -19 -63 -21 -61 -2 2 -36 116 -76 253 l-73 249 -32
3 c-18 2 -32 1 -32 -2z"/>
<path d="M8760 3130 c0 -38 2 -40 30 -40 28 0 30 2 30 40 0 38 -2 40 -30 40
-28 0 -30 -2 -30 -40z"/>
<path d="M9130 3068 c0 -57 -4 -98 -8 -92 -15 22 -58 44 -87 44 -73 0 -130
-72 -141 -178 -18 -170 83 -301 192 -248 19 8 34 20 34 26 0 5 5 10 10 10 6 0
10 -9 10 -20 0 -15 7 -20 25 -20 l25 0 0 290 0 290 -30 0 -30 0 0 -102z m-32
-131 c27 -29 42 -77 42 -137 0 -96 -38 -160 -95 -160 -59 0 -95 61 -95 161 0
64 20 126 47 147 27 20 77 15 101 -11z"/>
<path d="M10000 2880 l0 -290 25 0 25 0 0 290 0 290 -25 0 -25 0 0 -290z"/>
<path d="M10900 2880 l0 -290 25 0 c25 0 25 1 25 83 0 75 2 86 24 106 l23 22
25 -43 c14 -24 40 -71 57 -105 29 -59 33 -63 67 -63 l35 0 -51 93 c-28 50 -60
111 -72 133 l-21 42 62 71 c33 39 61 74 61 76 0 3 -15 5 -33 5 -30 0 -41 -9
-98 -80 -35 -44 -67 -80 -71 -80 -5 0 -8 72 -8 160 l0 160 -25 0 -25 0 0 -290z"/>
<path d="M9695 3007 c-40 -19 -63 -47 -71 -84 -5 -27 -3 -31 20 -35 17 -3 26
-1 26 7 0 7 9 24 21 39 17 22 29 26 68 26 55 0 77 -18 87 -68 8 -37 -1 -42
-109 -62 -107 -20 -151 -80 -127 -172 22 -79 128 -103 204 -45 l34 26 6 -24
c5 -20 13 -25 37 -25 22 0 28 4 22 13 -4 6 -10 90 -13 184 -5 171 -5 173 -32
200 -22 22 -38 27 -85 30 -35 2 -70 -2 -88 -10z m150 -254 c-9 -62 -19 -80
-58 -103 -43 -27 -73 -25 -102 5 -52 51 -21 99 81 125 38 10 73 19 78 19 4 1
5 -20 1 -46z"/>
<path d="M10213 3005 c-34 -15 -58 -45 -68 -86 -6 -23 -3 -27 20 -31 23 -5 28
-1 37 23 13 36 35 49 87 49 50 0 81 -27 81 -70 0 -34 -16 -45 -80 -55 -117
-17 -160 -54 -160 -136 0 -40 5 -55 29 -81 26 -30 35 -33 84 -33 42 0 63 6 86
23 37 27 51 28 51 2 0 -15 7 -20 29 -20 27 0 28 1 25 48 -2 26 -5 106 -8 178
-2 75 -9 140 -16 153 -24 46 -129 66 -197 36z m157 -241 c0 -101 -103 -169
-164 -108 -20 20 -21 78 -1 94 11 10 115 41 158 49 4 0 7 -15 7 -35z"/>
<path d="M10640 3013 c-8 -3 -27 -17 -42 -31 l-28 -26 0 27 c0 22 -5 27 -25
27 l-25 0 0 -210 0 -210 29 0 30 0 3 161 3 161 28 24 c31 26 73 31 101 11 26
-19 35 -78 36 -224 l0 -133 25 0 25 0 0 165 c0 186 -9 224 -59 249 -30 16 -72
19 -101 9z"/>
<path d="M11304 3006 c-66 -30 -99 -109 -49 -118 16 -3 25 -1 25 7 0 7 9 24
21 39 17 22 29 26 68 26 33 0 53 -5 63 -17 20 -23 32 -79 19 -87 -6 -4 -45
-13 -88 -22 -93 -17 -123 -37 -142 -91 -44 -125 94 -213 203 -130 l34 26 6
-24 c5 -20 13 -25 37 -25 22 0 28 3 22 13 -4 6 -10 90 -13 184 -5 171 -5 173
-32 200 -22 22 -38 27 -85 30 -35 2 -70 -2 -89 -11z m147 -257 c-4 -56 -14
-75 -54 -99 -43 -27 -73 -25 -102 5 -51 50 -20 101 77 126 34 9 67 15 73 14 5
-1 8 -21 6 -46z"/>
<path d="M11686 2989 l-26 -31 0 26 c0 21 -5 26 -25 26 l-25 0 0 -210 0 -210
24 0 24 0 4 149 c3 134 5 152 24 178 18 22 29 28 57 26 30 -2 36 1 42 25 5 19
2 30 -11 39 -29 21 -61 15 -88 -18z"/>
<path d="M8760 2800 l0 -210 30 0 30 0 0 210 0 210 -30 0 -30 0 0 -210z"/>
<path d="M9260 3002 c0 -4 29 -100 63 -212 63 -203 64 -206 49 -248 -15 -45
-47 -67 -78 -55 -12 5 -15 -1 -12 -28 3 -30 7 -34 36 -37 64 -6 77 19 171 328
40 129 74 241 76 248 3 8 -6 12 -24 12 -28 0 -29 -2 -77 -165 -26 -91 -51
-159 -54 -153 -4 7 -26 82 -50 166 -43 150 -44 152 -72 152 -15 0 -28 -3 -28
-8z"/>
<path d="M11721 2358 c-39 -11 -61 -54 -61 -123 0 -41 -2 -45 -25 -45 -20 0
-25 -5 -25 -25 0 -20 5 -25 25 -25 l25 0 0 -186 0 -185 28 3 27 3 3 183 2 182
30 0 c25 0 30 4 30 25 0 21 -5 25 -30 25 -29 0 -30 2 -30 43 0 50 13 67 52 67
18 0 28 5 28 14 0 8 3 21 6 29 7 19 -39 26 -85 15z"/>
<path d="M8350 2066 l0 -296 30 0 30 0 -2 293 -3 292 -27 3 -28 3 0 -295z"/>
<path d="M9427 2354 c-4 -4 -7 -22 -7 -41 0 -30 3 -33 31 -33 29 0 30 2 27 38
-2 28 -8 38 -23 40 -12 2 -24 0 -28 -4z"/>
<path d="M9268 2318 c-25 -17 -28 -26 -28 -74 0 -47 -2 -54 -20 -54 -15 0 -20
-7 -20 -25 0 -18 5 -25 19 -25 17 0 19 -12 23 -165 5 -193 10 -205 86 -205 36
0 43 3 38 16 -3 9 -6 22 -6 30 0 8 -8 14 -18 14 -37 0 -42 19 -42 167 l0 143
30 0 c25 0 30 4 30 25 0 21 -5 25 -30 25 l-29 0 -3 74 -3 74 -27 -20z"/>
<path d="M9613 2321 c-17 -14 -23 -31 -25 -72 -3 -47 -6 -54 -25 -57 -35 -5
-32 -52 2 -52 l25 0 0 -163 c0 -194 5 -207 77 -207 42 0 45 2 39 23 -3 12 -6
25 -6 30 0 4 -8 7 -18 7 -37 0 -42 19 -42 167 l0 143 30 0 c25 0 30 4 30 24 0
19 -6 25 -27 28 -27 3 -28 5 -33 75 l-5 71 -22 -17z"/>
<path d="M10178 2318 c-25 -17 -28 -26 -28 -74 0 -47 -2 -54 -20 -54 -15 0
-20 -7 -20 -25 0 -18 5 -25 19 -25 19 0 20 -10 23 -164 3 -189 10 -206 80
-206 35 0 38 2 38 29 0 25 -4 30 -27 33 l-28 3 -3 153 -3 152 31 0 c25 0 30 4
30 25 0 21 -5 25 -30 25 l-29 0 -3 74 -3 74 -27 -20z"/>
<path d="M8602 2175 c-36 -30 -42 -31 -35 -5 4 17 0 20 -23 20 l-29 0 3 -210
3 -210 24 0 24 0 3 154 c3 139 5 158 24 183 28 38 91 44 120 12 17 -19 19 -39
22 -186 l3 -164 27 3 27 3 -1 167 c-1 110 -6 178 -14 198 -26 62 -123 81 -178
35z"/>
<path d="M8943 2190 c-38 -15 -65 -69 -60 -118 6 -58 35 -87 116 -113 103 -34
122 -60 80 -113 -28 -36 -89 -37 -124 -1 -14 13 -25 31 -25 40 0 10 -10 15
-30 15 -16 0 -30 -5 -30 -10 0 -25 30 -78 55 -98 108 -85 264 17 223 144 -14
42 -37 58 -141 95 -77 27 -95 60 -54 95 43 37 109 26 127 -21 10 -27 47 -35
56 -12 9 24 -15 67 -48 87 -35 21 -105 26 -145 10z"/>
<path d="M10393 2180 c-18 -10 -42 -39 -54 -62 -27 -52 -36 -164 -20 -226 15
-54 62 -107 107 -122 69 -23 154 13 180 76 20 47 18 54 -16 54 -16 0 -30 -4
-30 -9 0 -5 -12 -23 -26 -40 -59 -70 -164 -10 -164 94 l0 25 131 0 131 0 -7
53 c-9 71 -40 132 -79 157 -43 26 -111 26 -153 0z m116 -45 c25 -13 61 -75 61
-105 0 -6 -41 -10 -100 -10 -109 0 -109 0 -89 59 11 31 60 71 87 71 7 0 26 -7
41 -15z"/>
<path d="M11344 2190 c-30 -12 -72 -65 -85 -109 -6 -21 -10 -76 -8 -123 3 -72
8 -91 31 -125 50 -75 151 -93 217 -38 48 41 65 89 65 190 1 78 -2 96 -24 133
-13 24 -38 52 -56 62 -33 21 -102 26 -140 10z m120 -68 c48 -43 61 -162 27
-239 -49 -108 -168 -72 -186 56 -21 152 72 259 159 183z"/>
<path d="M9420 1980 l0 -210 30 0 30 0 0 210 0 210 -30 0 -30 0 0 -210z"/>
<path d="M9762 2016 c3 -158 5 -177 24 -203 45 -61 121 -67 176 -13 l28 28 0
-29 c0 -24 4 -29 25 -29 l25 0 0 210 0 210 -29 0 -30 0 -3 -161 -3 -161 -28
-24 c-36 -31 -71 -31 -102 1 -24 24 -25 28 -25 185 l0 160 -31 0 -31 0 4 -174z"/>
<path d="M8300 1505 l0 -35 80 0 80 0 0 -261 0 -260 28 3 27 3 3 258 2 257 80
0 80 0 0 35 0 35 -190 0 -190 0 0 -35z"/>
<path d="M9402 1248 l3 -293 25 0 25 0 5 155 c3 85 9 163 14 173 9 19 56 47
80 47 8 0 28 -11 43 -24 l28 -24 4 -166 3 -166 25 0 25 0 -4 183 c-3 194 -8
213 -56 239 -36 19 -96 14 -131 -11 l-31 -22 0 100 0 101 -30 0 -30 0 2 -292z"/>
<path d="M10552 1248 l3 -293 25 0 25 0 0 290 0 290 -28 3 -27 3 2 -293z"/>
<path d="M8767 1376 c-49 -18 -64 -31 -90 -80 -31 -60 -31 -203 1 -264 30 -56
73 -82 137 -82 65 0 110 28 135 83 l19 42 -26 7 c-30 8 -43 3 -43 -17 0 -20
-58 -65 -84 -65 -47 0 -106 72 -106 130 0 19 6 20 130 20 l130 0 0 33 c0 72
-43 162 -88 186 -34 17 -78 20 -115 7z m96 -66 c27 -21 53 -83 42 -100 -8 -13
-182 -13 -190 0 -9 14 23 83 48 102 29 23 69 22 100 -2z"/>
<path d="M9155 1379 c-69 -20 -107 -83 -113 -189 -6 -99 10 -155 58 -202 34
-34 43 -38 90 -38 77 0 124 40 144 123 6 25 4 27 -23 27 -25 0 -31 -5 -36 -30
-8 -35 -48 -70 -81 -70 -13 0 -38 13 -56 29 l-33 29 0 107 0 107 33 29 c51 45
105 33 131 -29 10 -23 17 -28 37 -24 29 5 31 26 4 69 -33 56 -95 80 -155 62z"/>
<path d="M9905 1376 c-17 -7 -36 -20 -44 -29 -19 -23 -28 -21 -27 6 1 16 -5
23 -21 25 l-23 3 0 -215 0 -216 24 0 24 0 4 159 c3 142 5 161 23 181 44 49
110 46 134 -6 7 -15 11 -86 11 -180 l0 -155 26 3 26 3 -1 174 c-2 215 -11 238
-96 255 -17 3 -43 0 -60 -8z"/>
<path d="M10266 1380 c-75 -23 -116 -99 -116 -215 0 -139 55 -215 154 -215 97
0 154 64 164 185 5 73 -10 145 -39 187 -35 48 -108 74 -163 58z m83 -65 c40
-20 61 -71 61 -148 0 -77 -10 -109 -46 -142 -47 -43 -107 -27 -141 38 -10 21
-16 56 -16 102 0 128 61 193 142 150z"/>
<path d="M10806 1380 c-35 -11 -72 -44 -94 -85 -25 -46 -23 -207 3 -260 29
-57 75 -85 143 -85 50 0 58 3 92 38 21 21 43 55 49 77 14 50 14 149 0 198 -14
51 -63 104 -107 117 -42 11 -47 11 -86 0z m92 -66 c12 -8 29 -29 37 -45 19
-35 22 -144 5 -194 -13 -39 -52 -75 -82 -75 -35 0 -79 31 -94 65 -18 44 -18
156 0 199 25 61 86 84 134 50z"/>
<path d="M11186 1380 c-71 -22 -111 -102 -110 -220 0 -108 40 -179 111 -199
39 -11 76 -4 102 20 28 26 31 24 31 -16 0 -46 -23 -101 -48 -114 -51 -27 -132
0 -132 44 0 10 -10 15 -29 15 -28 0 -29 -1 -21 -36 11 -47 35 -72 83 -85 83
-22 163 16 189 89 9 26 13 106 13 267 l0 230 -25 0 c-18 0 -25 -5 -24 -17 2
-23 -1 -22 -34 2 -34 24 -69 31 -106 20z m86 -70 c39 -30 51 -70 46 -161 -3
-77 -5 -82 -36 -110 -75 -67 -152 -4 -152 127 0 67 11 103 40 134 33 35 67 38
102 10z"/>
<path d="M11450 1374 c0 -4 29 -101 65 -215 57 -185 63 -212 53 -241 -16 -47
-37 -68 -70 -68 -32 0 -38 -23 -14 -55 22 -30 76 -9 103 40 16 31 111 325 170
528 4 15 0 18 -23 15 -27 -3 -30 -8 -72 -153 -24 -82 -47 -158 -51 -168 -4
-12 -20 29 -45 120 -53 189 -59 203 -90 203 -15 0 -26 -3 -26 -6z"/>
</g>
</svg>
